<?xml version="1.0" encoding="UTF-8" standalone="no"?>
<!-- Created with Inkscape (http://www.inkscape.org/) -->

<svg
   xmlns:dc="http://purl.org/dc/elements/1.1/"
   xmlns:cc="http://creativecommons.org/ns#"
   xmlns:rdf="http://www.w3.org/1999/02/22-rdf-syntax-ns#"
   xmlns:svg="http://www.w3.org/2000/svg"
   xmlns="http://www.w3.org/2000/svg"
   xmlns:sodipodi="http://sodipodi.sourceforge.net/DTD/sodipodi-0.dtd"
   xmlns:inkscape="http://www.inkscape.org/namespaces/inkscape"
   width="990"
   height="765"
   id="svg3086"
   version="1.1"
   inkscape:version="0.48.2 r9819"
   sodipodi:docname="chez_basic_02.svg">
  <defs
     id="defs3088">
    <marker
       inkscape:stockid="Arrow2Lend"
       orient="auto"
       refY="0"
       refX="0"
       id="Arrow2Lend"
       style="overflow:visible">
      <path
         id="path4828"
         style="font-size:12px;fill-rule:evenodd;stroke-width:0.625;stroke-linejoin:round"
         d="M 8.7185878,4.0337352 -2.2072895,0.01601326 8.7185884,-4.0017078 c -1.7454984,2.3720609 -1.7354408,5.6174519 -6e-7,8.035443 z"
         transform="matrix(-1.1,0,0,-1.1,-1.1,0)"
         inkscape:connector-curvature="0" />
    </marker>
  </defs>
  <sodipodi:namedview
     id="base"
     pagecolor="#ffffff"
     bordercolor="#666666"
     borderopacity="1.0"
     inkscape:pageopacity="0.0"
     inkscape:pageshadow="2"
     inkscape:zoom="2.32"
     inkscape:cx="186.2956"
     inkscape:cy="618.76451"
     inkscape:document-units="mm"
     inkscape:current-layer="layer1"
     showgrid="true"
     units="mm"
     inkscape:window-width="1423"
     inkscape:window-height="918"
     inkscape:window-x="248"
     inkscape:window-y="0"
     inkscape:window-maximized="0"
     inkscape:snap-global="false">
    <inkscape:grid
       type="xygrid"
       id="grid3094"
       empspacing="10"
       visible="true"
       enabled="true"
       snapvisiblegridlinesonly="true"
       spacingx="5mm"
       spacingy="5mm"
       units="mm"
       dotted="false" />
    <sodipodi:guide
       position="0,0"
       orientation="0,990"
       id="guide5866" />
    <sodipodi:guide
       position="990,0"
       orientation="-765,0"
       id="guide5868" />
    <sodipodi:guide
       position="990,765"
       orientation="0,-990"
       id="guide5870" />
    <sodipodi:guide
       position="0,765"
       orientation="765,0"
       id="guide5872" />
  </sodipodi:namedview>
  <metadata
     id="metadata3091">
    <rdf:RDF>
      <cc:Work
         rdf:about="">
        <dc:format>image/svg+xml</dc:format>
        <dc:type
           rdf:resource="http://purl.org/dc/dcmitype/StillImage" />
        <dc:title></dc:title>
      </cc:Work>
    </rdf:RDF>
  </metadata>
  <g
     inkscape:groupmode="layer"
     id="layer3"
     inkscape:label="chess"
     style="display:none"
     sodipodi:insensitive="true"
     transform="translate(0,587.83466)">
    <path
       inkscape:connector-curvature="0"
       d="m -305.12314,-87.97057 c 0,1.54922 -1.07583,2.32381 -3.22749,2.32381 -2.40987,0 -3.6148,-0.77459 -3.6148,-2.32381 0,-7.14352 -2.36684,-12.95302 -7.10049,-17.42847 -4.21727,-3.78694 -8.30543,-5.6804 -12.26449,-5.6804 -5.85253,0 -9.51036,2.3238 -10.9735,6.9714 l -0.5164,3.4857 0,0.2582 c 0,3.44265 2.53897,8.21936 7.6169,14.33008 1.37706,1.54921 2.53896,2.75413 3.4857,3.61481 1.37706,1.11885 3.65783,1.67828 6.84229,1.67828 3.3566,0 8.7788,-0.6455 16.26658,-1.93649 7.57387,1.29099 13.0391,1.93649 16.39569,1.93649 3.27053,0 5.55129,-0.55943 6.84231,-1.67828 3.61479,-3.18448 6.62712,-7.05747 9.03697,-11.619 1.37708,-2.58201 2.06561,-4.69063 2.06561,-6.32589 0,-5.4222 -2.45291,-8.82184 -7.3587,-10.19889 -1.291,-0.34427 -2.66806,-0.51641 -4.13119,-0.51641 -3.95905,0 -8.00419,1.93649 -12.1354,5.80951 -4.81972,4.30333 -7.22959,10.06978 -7.22959,17.29936 m 28.01468,-12.39357 c 0,3.44265 -2.36682,7.48778 -7.1005,12.13538 l -3.35659,2.84022 -1.291,0.77458 c -1.63527,0.2582 -3.3566,0.3873 -5.16399,0.3873 -5.33613,0 -8.0042,-1.07584 -8.0042,-3.2275 0.17213,-6.62712 2.15167,-11.79113 5.9386,-15.49197 3.27052,-3.27055 6.62713,-4.90581 10.06978,-4.90581 4.3894,0 7.18658,1.59224 8.39149,4.7767 l 0.51641,2.7111 m -12.26448,32.79137 c 0,-2.23774 -6.3259,-3.3566 -18.97769,-3.3566 -3.44266,0 -6.49803,0.12909 -9.16609,0.3873 l -3.0984,0.2582 c -4.6476,0.60247 -6.9714,1.46312 -6.9714,2.58199 0,1.291 1.1619,1.9365 3.4857,1.9365 l 15.62109,-1.291 15.492,1.291 c 2.40984,0 3.61479,-0.60246 3.61479,-1.80739 m 7.22959,3.09839 c -0.17214,5.85254 -8.95093,8.7788 -26.33638,8.7788 -17.21332,0 -25.94908,-2.92626 -26.20728,-8.7788 -0.0861,-5.50826 -0.9037,-10.41405 -2.4529,-14.71738 -0.94673,-2.32379 -2.75413,-5.29309 -5.4222,-8.90789 -3.35659,-4.56154 -5.03489,-8.60666 -5.03489,-12.1354 0,-5.50826 2.36683,-9.76855 7.10049,-12.78089 2.66807,-1.72133 5.63736,-2.58199 8.9079,-2.58199 4.47546,0 8.73576,1.63527 12.78089,4.90579 0,-3.95906 0.3873,-6.67016 1.1619,-8.13328 0.60246,-1.63528 2.58199,-3.61482 5.93859,-5.93861 l 0,-2.9693 -5.29309,-3.2275 0,-4.6476 4.77669,0 1.5492,-4.77668 4.38939,0 1.6783,4.77668 4.64759,0 0,4.6476 -5.16399,3.2275 0,2.9693 c 3.27053,2.40986 5.29309,4.47546 6.06769,6.1968 l 0.9037,3.74388 c 0.0861,1.0328 0.17214,2.40988 0.2582,4.13121 4.04513,-3.27052 8.21937,-4.90579 12.52271,-4.90579 5.76645,0 10.24192,2.19469 13.42638,6.58409 1.80741,2.582 2.7111,5.50826 2.7111,8.77879 0,3.52874 -1.6783,7.61689 -5.0349,12.26448 l -2.9693,4.13122 c -3.18445,4.81972 -4.81971,11.27472 -4.90579,19.36497 m -57.70766,-35.88976 c 0,-3.61479 1.8074,-5.93859 5.4222,-6.97139 1.0328,-0.34428 2.10863,-0.51641 3.22749,-0.51641 3.6148,0 7.05747,1.63526 10.328,4.90581 3.70086,3.78692 5.63736,8.95092 5.80949,15.49197 0.0861,1.89347 -1.89347,2.96931 -5.93859,3.2275 -0.60247,0 -1.24797,0 -1.9365,0 -1.72133,0 -3.4857,-0.1291 -5.2931,-0.3873 -2.8402,-1.37707 -5.68039,-4.08815 -8.52059,-8.13329 -2.0656,-3.01233 -3.0984,-5.55129 -3.0984,-7.61689"
       id="text1061"
       style="font-size:12px;font-style:normal;font-weight:normal;fill:#000000;fill-opacity:1;stroke:none;font-family:Bitstream Vera Sans" />
    <path
       inkscape:connector-curvature="0"
       d="m -162.23773,-69.12198 c 0,1.37707 0.98976,2.0656 2.9693,2.0656 l 8.90789,-0.6455 c -1.1e-4,0 2.58189,-0.12911 7.746,-0.3873 l 1.9365,0 15.10468,0.77461 3.0984,0.25819 c 1.9794,0 2.9692,-0.68853 2.9693,-2.0656 -10e-5,-2.49592 -5.76658,-3.87299 -17.2994,-4.13119 l -4.00209,0 c -9.72564,0 -16.22356,0.73158 -19.49409,2.19469 -1.29099,0.51641 -1.93649,1.16191 -1.93649,1.9365 m -16.13749,-53.96376 c -1.63528,0 -2.66806,0.81765 -3.0984,2.45291 -0.0861,0.2582 -0.12911,0.51639 -0.12911,0.77461 0,1.63526 0.81765,2.66806 2.45291,3.09838 0.25819,0.0861 0.51639,0.12911 0.7746,0.12911 2.06559,0 3.09839,-1.07584 3.09839,-3.22749 0,-2.15168 -1.0328,-3.22752 -3.09839,-3.22752 m 16.91207,-8.13329 c -2.23772,0 -3.35657,1.07584 -3.35657,3.2275 0,2.15168 1.11885,3.2275 3.35657,3.2275 2.06561,0 3.09841,-1.07582 3.09841,-3.2275 0,-2.15166 -1.0328,-3.2275 -3.09841,-3.2275 m 41.18288,0 c -1.46324,0 -2.45301,0.73158 -2.96929,2.1947 l -0.12911,1.0328 c -1e-4,2.15168 1.0327,3.2275 3.0984,3.2275 2.15155,0 3.22739,-1.07582 3.22749,-3.2275 -1e-4,-2.15166 -1.07594,-3.2275 -3.22749,-3.2275 m 16.78299,8.13329 c -2.06572,0 -3.0985,1.07584 -3.09839,3.22752 -1.1e-4,2.15165 1.03267,3.22749 3.09839,3.22749 2.15156,0 3.22738,-1.07584 3.22751,-3.22749 -1.3e-4,-1.63526 -0.81775,-2.66807 -2.45291,-3.09841 -0.2583,-0.0861 -0.51651,-0.12911 -0.7746,-0.12911 m -9.2952,61.70977 c -1.1e-4,2.40986 -4.43253,4.08816 -13.29727,5.0349 l -12.52271,0.77458 -2.3238,0 c -10.50022,0 -18.50432,-0.90369 -24.01257,-2.71108 -2.66807,-0.77461 -4.0021,-1.80741 -4.0021,-3.0984 0,-2.49593 0.68853,-5.33614 2.0656,-8.5206 0.94673,-1.89347 1.42011,-3.22751 1.42011,-4.00209 0,-1.63526 -1.97954,-4.81975 -5.93861,-9.55339 -2.15166,-2.49594 -3.39962,-4.21728 -3.74389,-5.16402 0,-0.51639 -0.2582,-1.67829 -0.77461,-3.48568 l -1.6783,-6.455 c -1.11885,-4.21727 -1.85042,-8.69271 -2.19469,-13.42639 -3.95906,-1.63526 -5.93859,-4.26029 -5.93859,-7.87508 0,-3.09841 1.42008,-5.2931 4.26029,-6.58409 0.94673,-0.43035 1.97953,-0.64552 3.0984,-0.64552 2.84019,0 4.94883,1.29101 6.32589,3.87301 0.60248,1.11885 0.90371,2.23773 0.90371,3.3566 l -0.6455,4.90579 c 0,3.87299 2.75411,8.60666 8.26239,14.20099 0.43032,-3.52873 0.6455,-7.22959 0.6455,-11.10261 0,-5.76645 -1.0328,-9.42428 -3.0984,-10.97347 -0.17213,-0.17215 -0.34428,-0.30123 -0.51639,-0.3873 -1.54921,-0.94674 -2.3238,-2.62503 -2.3238,-5.0349 0,-3.18446 1.46311,-5.37917 4.38938,-6.5841 0.94675,-0.43033 1.93651,-0.6455 2.96929,-0.6455 3.01234,0 5.16401,1.37708 6.45501,4.13119 0.51639,0.94675 0.77448,1.97953 0.7746,3.09841 l -0.90371,5.55129 c 0,4.81974 2.36673,12.17841 7.10051,22.07609 1.80728,-8.09027 2.711,-14.28705 2.7111,-18.59039 -1e-4,-3.61479 -0.64562,-6.92836 -1.93649,-9.94068 -0.51652,-1.11888 -0.77471,-1.97954 -0.77461,-2.58201 -1e-4,-3.18447 1.41998,-5.37916 4.26029,-6.58411 0.94662,-0.43032 1.93639,-0.6455 2.9693,-0.6455 3.01223,0 5.12084,1.42011 6.32589,4.26032 0.43022,0.94673 0.6454,1.93649 0.6455,2.96929 -1e-4,0.17213 -0.73167,2.4529 -2.19469,6.8423 -0.34439,1.11885 -0.51651,3.01233 -0.51641,5.68039 -1e-4,4.30334 0.90359,10.50012 2.7111,18.59039 4.64749,-9.81161 6.9713,-17.1703 6.9714,-22.07609 l -0.7746,-5.42218 0,-0.12911 c -1.2e-4,-3.18446 1.46303,-5.37917 4.3894,-6.5841 0.94662,-0.43033 1.93639,-0.6455 2.96929,-0.6455 3.01223,0 5.16389,1.37708 6.455,4.13119 0.51629,0.94675 0.77449,1.97953 0.77459,3.09841 -1e-4,2.40987 -0.77471,4.1312 -2.3238,5.16398 -2.40997,1.54922 -3.61489,5.33614 -3.61479,11.3608 -10e-5,3.78694 0.21505,7.44477 0.6455,10.9735 5.50814,-5.59433 8.26228,-10.328 8.26239,-14.20099 l -0.6455,-4.90579 c -1e-4,-3.01234 1.37697,-5.16401 4.13121,-6.45501 0.94662,-0.51639 1.97942,-0.7746 3.09839,-0.7746 3.0983,0 5.29299,1.37706 6.58409,4.1312 l 0.7746,2.45291 0,0.6455 c -1e-4,3.44264 -1.97964,6.06767 -5.93859,7.87508 -0.51651,5.9386 -1.97964,13.21123 -4.3894,21.81788 -0.17223,0.68854 -0.25831,1.20493 -0.2582,1.54919 -1.1e-4,0.60247 -0.64561,1.59224 -1.9365,2.96931 l -1.54919,1.93649 c -4.13131,4.73367 -6.19691,8.0042 -6.19681,9.81161 -1e-4,0.51639 1.0327,3.18446 3.09841,8.00419 0.34417,1.72132 0.51628,3.2275 0.51639,4.5185 m -28.01467,-73.84515 c -1.63538,0 -2.66818,0.81764 -3.09841,2.4529 -0.0862,0.2582 -0.12919,0.51639 -0.12908,0.77459 -1.1e-4,1.63527 0.81751,2.66807 2.45288,3.09841 0.25809,0.0861 0.51631,0.12911 0.77461,0.12911 2.0655,0 3.09828,-1.07584 3.0984,-3.22752 -1.2e-4,-1.54919 -0.73167,-2.582 -2.19471,-3.09839 -0.2583,-0.0861 -0.55953,-0.1291 -0.90369,-0.1291 m 23.23798,50.34897 c -1e-4,-2.75414 -7.7461,-4.13122 -23.23798,-4.13122 -15.57806,0 -23.36708,1.42011 -23.36708,4.26032 0,1.20492 1.11885,1.80739 3.35658,1.80739 2.58202,0 5.80951,-0.21516 9.68251,-0.6455 l 8.39149,-0.25819 2.06561,0 c 2.40974,0 6.97126,0.21515 13.68458,0.6455 l 6.32589,0.25819 c 2.0655,0 3.0983,-0.6455 3.0984,-1.93649"
       id="path1742"
       style="font-size:12px;font-style:normal;font-weight:normal;fill:#000000;fill-opacity:1;stroke:none;font-family:Bitstream Vera Sans" />
    <path
       inkscape:connector-curvature="0"
       d="m -1.79485,-55.69558 -2.4529,-2.4529 0,-9.16609 13.03908,-12.90999 0,-25.69087 -10.06977,-9.9407 0,-11.4899 3.61479,-3.6148 9.16609,0 2.32379,2.19472 0,3.22749 4.90579,0 0,-3.22749 2.1947,-2.19472 14.33009,0 2.19471,2.19472 0,3.22749 4.9058,0 0,-3.22749 2.19469,-2.19472 9.29519,0 3.6148,3.6148 0,11.4899 -10.06978,9.9407 0,25.69087 13.03907,12.90999 0,9.16609 -2.58199,2.4529 -59.64415,0 m 15.23378,-27.49827 0,4.3894 29.30569,0 0,-4.3894 -29.30569,0 m 0,-23.23799 0,4.3894 29.30569,0 0,-4.3894 -29.30569,0"
       id="path1734"
       style="font-size:12px;font-style:normal;font-weight:normal;fill:#000000;fill-opacity:1;stroke:none;font-family:Bitstream Vera Sans" />
    <path
       inkscape:connector-curvature="0"
       d="m 188.72842,-85.51765 c -4.38951,0 -6.58422,0.68853 -6.5841,2.0656 -1.2e-4,1.20492 1.93639,1.9365 5.80949,2.19469 l 7.10051,0 c 8.60652,0 12.90986,-0.73158 12.90998,-2.19469 -1.2e-4,-1.37707 -2.19481,-2.0656 -6.58409,-2.0656 l -12.65179,0 m 0,-8.00421 c -3.78704,0 -5.89568,0.43035 -6.3259,1.291 -0.17224,0.17215 -0.25832,0.43034 -0.2582,0.77461 -1.2e-4,0.94673 0.90359,1.50616 2.71108,1.6783 2.23765,0.25819 5.63727,0.3873 10.19892,0.3873 4.56142,0 8.00407,-0.12911 10.32797,-0.3873 1.72123,-0.17214 2.58189,-0.73157 2.58201,-1.6783 -1.2e-4,-1.37707 -2.19481,-2.06561 -6.58409,-2.06561 l -12.65179,0 m 24.01257,5.55129 2.58199,9.9407 c -1e-4,3.01234 -3.05547,4.7767 -9.16609,5.29309 4.47536,1.72134 8.6496,2.58202 12.52269,2.58202 0.51631,0 3.05526,-0.12911 7.61689,-0.38731 3.78684,0 6.88523,1.97954 9.2952,5.93861 0.34416,0.68852 0.77451,1.46311 1.291,2.32379 l -4.64759,7.10048 c -1.37718,1.72134 -2.84031,2.84021 -4.38939,3.3566 -0.34439,-1.80738 -3.09851,-2.92625 -8.26239,-3.3566 l -3.09841,-0.25819 c -10.5863,-0.86066 -17.72984,-3.14142 -21.43057,-6.84229 -3.35671,3.52872 -8.47768,5.55129 -15.3629,6.06768 -1.5492,0.17215 -3.57176,0.43034 -6.0677,0.77461 -6.28287,0.51639 -9.9407,1.4201 -10.97348,2.7111 -0.17214,0.25819 -0.30125,0.55943 -0.38731,0.90369 -2.23771,-0.94673 -4.34636,-3.0984 -6.32589,-6.45498 -0.77461,-1.37707 -1.6783,-2.7111 -2.7111,-4.0021 2.3238,-4.30333 4.81972,-6.88532 7.48778,-7.746 0.94676,-0.34427 1.97954,-0.5164 3.09841,-0.5164 0,0 2.53896,0.12909 7.6169,0.38731 3.95905,0 8.13328,-0.86068 12.52268,-2.58202 -6.11072,-0.51639 -9.16608,-2.28075 -9.16608,-5.29309 0,-0.25819 0.68853,-2.45288 2.0656,-6.58409 0.43032,-1.37707 0.6455,-2.32381 0.6455,-2.8402 -5.25007,-6.36892 -7.87509,-12.00629 -7.87509,-16.91208 0,-5.6804 2.79715,-10.84439 8.39148,-15.49198 4.99176,-4.21729 8.60656,-6.45501 10.84439,-6.7132 -1.89357,-2.3238 -2.8403,-4.73368 -2.8402,-7.2296 -1e-4,-4.04513 2.02247,-6.54105 6.06771,-7.4878 0.94662,-0.2581 1.93639,-0.38718 2.9693,-0.38729 4.3032,1.1e-4 7.10037,1.59224 8.39147,4.77669 l 0.6455,2.7111 0,0.3873 c -10e-5,2.40986 -0.94684,4.81972 -2.84019,7.2296 1.63516,0.43033 4.08805,1.76437 7.3587,4.0021 7.91802,5.50824 11.87709,11.57595 11.87719,18.20308 -1e-4,4.99186 -2.58212,10.45708 -7.746,16.39567 m -15.36288,-12.00627 0,-5.93859 4.51849,0 0,-4.90582 -4.51849,0 0,-5.55129 -4.64759,0 0,5.55129 -4.51851,0 0,4.90582 4.51851,0 0,5.93859 4.64759,0 m -2.32379,-36.40617 c -1.72145,0 -2.79729,0.77458 -3.22752,2.3238 l -0.12908,0.77458 c -1.1e-4,1.63527 0.86055,2.66807 2.58199,3.09841 0.25809,0.0861 0.51629,0.12909 0.77461,0.12909 2.15154,0 3.22738,-1.07582 3.22749,-3.2275 -1.1e-4,-2.0656 -1.07595,-3.09838 -3.22749,-3.09838"
       id="path1731"
       style="font-size:12px;font-style:normal;font-weight:normal;fill:#000000;fill-opacity:1;stroke:none;font-family:Bitstream Vera Sans" />
    <path
       inkscape:connector-curvature="0"
       d="m 342.07081,-101.65514 c 2.15165,0 4.43242,-1.24798 6.84228,-3.7439 1.291,-1.29099 1.9365,-2.40987 1.9365,-3.3566 0,-1.11888 -1.0328,-1.67831 -3.0984,-1.67831 -2.40985,0 -4.43242,1.07584 -6.06768,3.2275 -0.86069,1.03281 -1.291,2.10864 -1.291,3.22752 0,1.54919 0.55942,2.32379 1.6783,2.32379 m -2.19471,-28.27288 c 0.17214,0 0.60246,-0.043 1.291,-0.12911 3.87301,0 8.00419,1.29102 12.39359,3.87301 0.51639,0.34427 0.77461,0.51639 0.77461,0.51639 2.49592,-4.04513 4.38938,-6.06769 5.68038,-6.06769 2.75413,1.5492 4.56155,3.2275 5.4222,5.03489 0.43034,0.86068 1.07584,2.66806 1.9365,5.4222 0.68853,-0.17215 1.37706,-0.25819 2.0656,-0.25819 7.22959,0 14.11491,4.43242 20.65599,13.29729 7.83206,10.24193 11.74809,24.18469 11.74809,41.82835 0,3.95907 -0.17213,7.53082 -0.51639,10.7153 l -54.48018,0 c 0.17215,-5.76647 2.28076,-11.23169 6.3259,-16.3957 0.43034,-0.68853 1.0328,-1.46312 1.8074,-2.32379 3.18447,-4.04512 5.12096,-7.14352 5.8095,-9.2952 0.34426,-1.11885 0.60246,-2.28076 0.7746,-3.48569 -5.6804,2.23773 -9.9407,5.5513 -12.7809,9.9407 -1.291,2.15165 -2.71108,4.3894 -4.2603,6.71319 -0.43034,0.68854 -1.07584,1.03281 -1.93649,1.03281 -2.15166,0 -3.22749,-1.33403 -3.22749,-4.0021 -0.86069,1.11886 -1.85045,1.6783 -2.9693,1.6783 0,0 -0.86068,-0.21518 -2.582,-0.6455 -3.70086,-0.94675 -6.32589,-2.58201 -7.87511,-4.90581 -0.51639,-0.77459 -1.07582,-1.80739 -1.6783,-3.09838 0.60248,-3.70088 3.57178,-11.05957 8.90791,-22.0761 3.873,-7.91813 6.28287,-13.59853 7.2296,-17.04118 0.0861,-0.7746 0.12909,-1.89345 0.12909,-3.3566 0,-1.20493 -0.21517,-3.52872 -0.6455,-6.97139 m -7.74599,45.31406 c -2.0656,0 -3.44267,0.90369 -4.1312,2.7111 -0.17213,0.43033 -0.2582,0.86066 -0.2582,1.291 0,0.34426 0.12909,0.7746 0.3873,1.29099 2.23773,0 3.6148,-0.94673 4.13119,-2.84018 0.0861,-0.2582 0.12911,-0.55945 0.12911,-0.9037 0,-0.17214 -0.0861,-0.68853 -0.2582,-1.54921 m 63.38804,19.88139 0,-4.77669 c 0,-14.02887 -3.57175,-25.51875 -10.71527,-34.46967 -6.19682,-7.74601 -11.83418,-11.619 -16.91209,-11.619 0,0 -0.51641,-0.0861 -1.54921,-0.2582 -0.17213,0.0861 -0.30124,0.17213 -0.38731,0.2582 -1.11885,0 -1.67828,0.47336 -1.67828,1.42008 0,0.34428 0.2582,0.77461 0.77459,1.29102 4.64759,0.43032 9.72553,3.74388 15.23379,9.9407 6.97139,8.09024 10.4571,19.79531 10.4571,35.11514 0,0 0,0.25822 0,0.77461 0,3.78694 0.81762,5.68041 2.45288,5.68041 1.37708,0 2.15169,-1.11888 2.3238,-3.3566"
       id="path1726"
       style="font-size:12px;font-style:normal;font-weight:normal;fill:#000000;fill-opacity:1;stroke:none;font-family:Bitstream Vera Sans" />
    <path
       inkscape:connector-curvature="0"
       d="m 503.41747,-55.69558 c -0.086,-1.0328 -0.12908,-3.05537 -0.12908,-6.0677 0,-10.84439 3.35661,-18.89162 10.06978,-24.14167 1.97954,-1.63527 4.3893,-3.14143 7.22961,-4.5185 -3.3566,-1.0328 -5.63736,-3.57176 -6.8423,-7.61689 -0.34427,-1.291 -0.51639,-2.62503 -0.51639,-4.0021 0,-5.76647 2.96929,-9.85462 8.90788,-12.2645 -1.54931,-2.58199 -2.3239,-5.03489 -2.32379,-7.35869 -1.1e-4,-3.87299 1.89336,-6.75622 5.6804,-8.64969 1.72121,-0.86067 3.57165,-1.29101 5.55129,-1.29101 4.30323,0 7.48768,1.67831 9.55339,5.03491 0.94662,1.46313 1.42,3.0984 1.4201,4.90579 -10e-5,2.49594 -0.73167,4.94883 -2.19471,7.35869 3.18438,1.291 5.46514,3.01234 6.8423,5.16399 1.37696,2.32381 2.06548,4.69063 2.06562,7.10051 -1.4e-4,4.47545 -1.54933,7.87509 -4.64761,10.19888 -0.77471,0.68854 -1.63538,1.16191 -2.58201,1.42011 7.91802,4.04513 13.039,9.33823 15.3629,15.87929 1.20482,3.61479 1.80728,7.87508 1.80738,12.78088 -10e-5,3.01233 -0.0431,5.0349 -0.12908,6.0677 l -55.12568,0"
       id="path1722"
       style="font-size:12px;font-style:normal;font-weight:normal;fill:#000000;fill-opacity:1;stroke:none;font-family:Bitstream Vera Sans" />
    <path
       inkscape:connector-curvature="0"
       d="m -307.00885,87.13344 c -17.12725,0 -25.81998,-2.88321 -26.07818,-8.64969 -0.43034,-7.91812 -1.76437,-13.89975 -4.0021,-17.94489 -0.94673,-1.63526 -2.28076,-3.61479 -4.00209,-5.93859 -2.92627,-3.87299 -4.56153,-7.14352 -4.9058,-9.81159 -0.0861,-0.68853 -0.12911,-1.42011 -0.12911,-2.19471 0,-5.42218 2.28077,-9.68247 6.84229,-12.78088 1.11888,-0.68854 2.28076,-1.24797 3.48571,-1.6783 4.56153,-1.63527 9.08002,-1.37707 13.55549,0.77461 1.63526,0.77458 3.27052,1.80738 4.90579,3.09838 l 0.12911,0.12911 c 0,-1.80741 0.0861,-3.7439 0.2582,-5.80948 0,-0.60249 0.30122,-1.42011 0.90369,-2.45292 1.37707,-2.23772 3.01233,-4.0021 4.90579,-5.29309 0.34426,-0.17214 0.68853,-0.38731 1.0328,-0.6455 l 0,-3.0984 -5.29309,-3.09839 0,-4.64759 4.7767,0 1.6783,-4.90582 3.87299,0 1.6783,4.90582 4.7767,0 0,4.64759 -5.29309,3.09839 0,3.0984 c 4.47546,2.84019 6.75622,5.68039 6.84228,8.52059 0.17213,1.72133 0.2582,3.6148 0.2582,5.6804 l 0.12911,-0.12911 c 5.42219,-4.56153 11.10259,-6.02465 17.04118,-4.38938 1.54921,0.43031 3.01234,1.07581 4.3894,1.9365 4.81972,2.92625 7.27263,7.27262 7.35871,13.03907 0,3.44268 -1.72134,7.53084 -5.16401,12.26449 -2.8402,3.95906 -4.60456,6.84231 -5.2931,8.6497 -1.46311,3.87298 -2.3238,8.86485 -2.58199,14.97559 -0.17212,5.76648 -8.86486,8.64969 -26.07818,8.64969 m 0,-43.50667 3.7439,-5.93859 c 0.60247,-1.291 1.07582,-2.49593 1.42008,-3.6148 0.17215,-0.60246 0.25822,-1.85042 0.25822,-3.7439 0,-5.07791 -1.76437,-7.6169 -5.29312,-7.6169 -3.70085,0 -5.55129,2.53899 -5.55129,7.6169 0,1.89348 0.0861,3.14144 0.2582,3.7439 0.68853,2.3238 2.15167,5.07794 4.3894,8.26239 0.51641,0.60247 0.77461,1.0328 0.77461,1.291 m 34.46968,-0.2582 c 0,-3.87299 -1.29099,-6.84228 -3.87302,-8.90788 -2.15165,-1.80741 -4.6906,-2.7111 -7.61689,-2.7111 -3.70084,0 -7.70295,1.89345 -12.00628,5.68039 -5.07793,4.3894 -7.96116,10.328 -8.6497,17.81579 0,0.60246 1.59223,1.29099 4.77669,2.0656 3.70087,0.68854 9.98373,1.0328 18.84859,1.0328 l 5.8095,-7.746 c 1.8074,-2.75412 2.71111,-5.16399 2.71111,-7.2296 m -34.46968,17.42849 c -2.15168,0.94675 -8.69274,1.76437 -19.62319,2.4529 -1.63527,0.0861 -2.9693,0.17213 -4.0021,0.2582 0.86068,3.27053 1.4201,6.88532 1.6783,10.84439 5.93859,-1.89347 13.25425,-2.84019 21.94699,-2.84019 8.86485,0 16.18052,0.94672 21.94699,2.84019 0.2582,-4.30333 0.81763,-7.91813 1.6783,-10.84439 l -19.10681,-1.5492 c -1.63526,-0.25819 -3.14142,-0.64549 -4.51848,-1.1619 m -34.46968,-17.42849 c 0,2.66808 2.10864,6.71321 6.3259,12.13539 1.0328,1.291 1.76437,2.23775 2.19469,2.84021 l 2.3238,0 c 8.86486,0 15.31986,-0.60246 19.36499,-1.80741 1.291,-0.34426 1.9365,-0.77458 1.9365,-1.29099 -0.68854,-7.48779 -3.57177,-13.42639 -8.64969,-17.81579 -4.21727,-3.78694 -8.21936,-5.68039 -12.0063,-5.68039 -1.20493,0 -2.49593,0.25819 -3.873,0.7746 -3.44267,0.86066 -5.76646,3.14142 -6.97139,6.84229 l -0.6455,3.4857 0,0.51639 m 34.46968,39.11728 c 8.09025,0 13.6846,-0.51641 16.78299,-1.54919 0.7746,-0.25822 1.1619,-0.55945 1.1619,-0.90372 0,-2.23773 -5.93859,-3.35659 -17.81581,-3.35659 -4.56152,0 -8.99394,0.30125 -13.29726,0.90371 -3.18449,0.51639 -4.77671,1.33403 -4.77671,2.45288 0,1.291 5.07793,2.10865 15.23379,2.45291 1.0328,0 1.93649,0 2.7111,0"
       id="path1721"
       style="font-size:12px;font-style:normal;font-weight:normal;fill:#000000;fill-opacity:1;stroke:none;font-family:Bitstream Vera Sans" />
    <path
       inkscape:connector-curvature="0"
       d="m -142.04736,58.08598 5.6804,0 c 1.29089,0 2.84008,0.043 4.64759,0.12908 l 12.78089,0.77461 0.12911,0 c 1.54909,0 2.32367,-0.21518 2.32379,-0.6455 l 0,-0.51641 c -1.2e-4,-2.58199 -5.72353,-4.26029 -17.1703,-5.03488 -2.06571,-0.17215 -3.87309,-0.25821 -5.42218,-0.25821 -8.43464,0 -14.93256,0.86067 -19.49409,2.58201 -2.0656,0.77458 -3.0984,1.67828 -3.0984,2.71108 l 0,0.51641 c 0,0.43032 0.77461,0.6455 2.3238,0.6455 l 17.29939,-0.90369 m 23.88348,5.80948 c -6.79937,-0.86066 -13.77077,-1.291 -20.91418,-1.291 -7.48791,0 -14.45921,0.43034 -20.91419,1.291 1.0328,0.86066 1.54919,2.53896 1.54919,5.03491 0,1.63526 -0.25819,2.62502 -0.77458,2.96929 5.16398,-0.94673 11.87709,-1.4201 20.13958,-1.4201 8.26228,0 14.97547,0.47337 20.13958,1.4201 -0.51651,-0.34427 -0.77471,-1.33403 -0.77461,-2.96929 -1e-4,-2.49595 0.51631,-4.17425 1.54921,-5.03491 m -20.91418,11.10259 c -4.38951,0 -9.29531,0.21517 -14.7174,0.64551 -4.21726,0.34425 -6.3259,1.33404 -6.3259,2.9693 0,2.15165 7.01443,3.22749 21.0433,3.22749 14.02874,0 21.04317,-1.07584 21.04327,-3.22749 -1e-4,-0.68854 -0.55953,-1.33404 -1.6783,-1.93651 -3.27063,-1.11886 -9.72563,-1.6783 -19.36497,-1.6783 m 0,-67.51925 c -2.15179,0 -3.22762,1.0328 -3.22749,3.0984 -1.3e-4,2.23773 1.0757,3.3566 3.22749,3.3566 2.06548,0 3.09828,-1.11887 3.09838,-3.3566 -1e-4,-2.0656 -1.0329,-3.0984 -3.09838,-3.0984 m 0,-3.74388 c 3.09828,0 5.24995,1.42008 6.45498,4.26029 l 0.6455,2.58199 0,0.38731 c -1.1e-4,0.51639 -0.34437,1.59223 -1.0328,3.22749 -1.20503,3.52874 -1.80749,6.58409 -1.80739,9.16608 -1e-4,4.21728 0.94663,10.45711 2.84019,18.7195 4.64749,-9.81158 6.9713,-17.21332 6.9714,-22.20519 l -0.77459,-5.55129 c -1.3e-4,-3.01233 1.33391,-5.164 4.0021,-6.455 0.9466,-0.51639 1.9794,-0.77458 3.09838,-0.77458 3.0983,0 5.29299,1.37704 6.58409,4.13118 0.51631,1.0328 0.77451,2.0656 0.77461,3.0984 -1e-4,2.23773 -0.77471,4.0021 -2.3238,5.2931 -2.3239,2.3238 -3.52885,6.11072 -3.61479,11.36078 -10e-5,2.23775 0.21505,5.85254 0.6455,10.8444 5.59422,-5.76646 8.39137,-10.4571 8.39149,-14.07189 l -0.64549,-5.03491 c -1.3e-4,-2.84019 1.29087,-4.94882 3.87299,-6.32587 1.03269,-0.60248 2.10851,-0.90372 3.2275,-0.90372 2.92615,0 5.12084,1.33404 6.58408,4.0021 l 0.77461,2.45291 0,0.77458 c -1e-4,3.52875 -1.97964,6.19682 -5.93859,8.0042 -0.17225,3.70087 -1.59235,10.97349 -4.26029,21.81789 -0.17225,0.51641 -0.30136,0.98976 -0.38731,1.4201 -1.1e-4,1.20493 -1.37717,3.27053 -4.13121,6.19679 -3.70097,3.70087 -5.55139,6.58409 -5.55129,8.6497 -1e-4,0.94672 1.0327,3.48571 3.0984,7.61689 0.34418,0.77461 0.51629,1.93649 0.51639,3.48571 l 0,0.90369 c -0.0862,0.25819 -0.12921,0.55943 -0.12908,0.90369 l 0,0.12911 0.12908,0.12909 c -1e-4,3.0984 -8.30553,4.81974 -24.91628,5.164 -1.11895,0 -2.19479,0 -3.22749,0 l -5.42218,-0.1291 -0.12911,0 c -8.09037,-0.2582 -14.24403,-0.94673 -18.46128,-2.06561 -2.66807,-0.77458 -4.0021,-1.76434 -4.0021,-2.96929 0.0861,-0.0861 0.0861,-0.60246 0,-1.54919 -0.0861,-0.17213 -0.0861,-0.34427 0,-0.51639 0,-1.97954 0.6455,-4.2603 1.9365,-6.84231 1.0328,-2.06558 1.54919,-3.48568 1.54919,-4.26029 0,-1.37708 -0.73156,-3.01234 -2.19469,-4.9058 l -6.32591,-7.22959 c -0.68852,-0.94673 -1.0328,-1.85045 -1.0328,-2.7111 -2.66806,-10.93046 -4.17421,-18.03094 -4.51849,-21.30149 -0.0861,-0.68854 -0.1291,-1.33404 -0.1291,-1.9365 -3.95906,-1.80738 -5.93859,-4.47545 -5.93859,-8.0042 0,-2.84019 1.29099,-4.94882 3.87298,-6.32587 1.11887,-0.60248 2.23775,-0.90372 3.3566,-0.90372 3.01234,0 5.16401,1.37707 6.45502,4.13121 0.51639,0.94673 0.77458,1.97953 0.77458,3.09838 l -0.6455,5.03491 c 0,3.78693 2.75413,8.47756 8.26239,14.07189 0.43034,-3.78694 0.6455,-7.40173 0.6455,-10.8444 0,-4.73365 -0.55943,-7.8751 -1.67828,-9.42429 -0.43034,-0.60246 -1.07584,-1.29099 -1.93651,-2.0656 -1.5492,-1.0328 -2.3238,-2.75412 -2.3238,-5.16399 0,-3.01233 1.4201,-5.20702 4.26031,-6.58408 0.94673,-0.43035 1.97954,-0.6455 3.09838,-0.6455 3.01234,0 5.16401,1.37704 6.45501,4.13118 0.51628,0.94673 0.77448,1.97954 0.77458,3.0984 l -0.77458,5.42219 0,0.1291 c 0,4.90579 2.32367,12.30754 6.9714,22.20519 1.80728,-7.83205 2.71098,-14.0719 2.71108,-18.7195 -10e-5,-3.44265 -0.6456,-6.71318 -1.9365,-9.81158 -0.51649,-1.20493 -0.7747,-2.0656 -0.77458,-2.58199 -1.2e-4,-3.01234 1.37694,-5.16399 4.13118,-6.45501 0.94662,-0.51639 1.97942,-0.77458 3.09841,-0.77458 m 37.30987,15.87928 c -1.37718,0 -2.36694,0.68854 -2.9693,2.0656 -0.0862,0.34427 -0.12922,0.68852 -0.12911,1.03278 -1.1e-4,1.72134 0.77449,2.79718 2.3238,3.22752 0.25809,0.0861 0.51631,0.12909 0.77461,0.12909 2.15154,0 3.22738,-1.11886 3.22749,-3.35661 -1.1e-4,-2.06558 -1.07595,-3.09838 -3.22749,-3.09838 m -16.9121,-8.26239 c -1.46324,0 -2.453,0.73157 -2.96929,2.19469 l -0.12909,1.0328 c -1.2e-4,1.54919 0.73144,2.58199 2.19469,3.0984 0.25809,0.0861 0.55932,0.12909 0.90369,0.12909 2.23763,0 3.3565,-1.07582 3.3566,-3.22749 -1e-4,-2.15165 -1.11897,-3.22749 -3.3566,-3.22749 m -41.05377,0 c -2.15165,0 -3.22749,1.07584 -3.22749,3.22749 0,2.15167 1.07584,3.22749 3.22749,3.22749 2.06561,0 3.09841,-1.07582 3.09841,-3.22749 0,-2.15165 -1.0328,-3.22749 -3.09841,-3.22749 m -16.91209,8.26239 c -2.15165,0 -3.22749,1.0328 -3.22749,3.09838 0,2.23775 1.07584,3.35661 3.22749,3.35661 2.06561,0 3.09841,-1.11886 3.09841,-3.35661 0,-1.46311 -0.73157,-2.45288 -2.19469,-2.96929 -0.25822,-0.0861 -0.55944,-0.12909 -0.90372,-0.12909 m 37.56809,8.2624 c -1.20505,7.57385 -2.75425,13.03907 -4.6476,16.39567 l -1.93649,3.09841 0,0.12911 c -0.25832,-0.25822 -1.37718,-1.54922 -3.3566,-3.87302 -2.49605,-2.92626 -5.12098,-8.47755 -7.8751,-16.65387 0.17213,1.20492 0.2582,2.45289 0.2582,3.74388 0,4.04514 -0.73157,10.28497 -2.19471,18.7195 -4.64758,-2.75414 -9.16608,-7.14354 -13.55549,-13.16821 1.46314,7.40174 2.58202,12.2645 3.3566,14.5883 0.51641,1.72133 1.16191,2.7111 1.9365,2.96929 7.05746,-4.04511 16.39559,-6.06768 28.01469,-6.06768 11.70494,0 21.04317,2.02257 28.01466,6.06768 1.54909,-0.51639 3.27043,-6.36891 5.16401,-17.55759 -4.47557,6.19681 -8.95105,10.58622 -13.42639,13.16821 -1.46325,-7.48781 -2.1948,-13.38336 -2.19469,-17.68669 -1.1e-4,-1.11886 0.0859,-2.7111 0.25819,-4.77669 -1.72144,5.16399 -3.70097,9.76854 -5.93859,13.81368 -1.20505,1.80739 -2.53909,3.52873 -4.00211,5.16399 -0.68863,0.68853 -1.11897,1.20494 -1.29099,1.54922 l -2.84021,-5.03491 c -0.0862,-0.34426 -0.21526,-0.68853 -0.38728,-1.0328 -0.68864,-1.89346 -1.80751,-6.41196 -3.3566,-13.55548"
       id="path1715"
       style="font-size:12px;font-style:normal;font-weight:normal;fill:#000000;fill-opacity:1;stroke:none;font-family:Bitstream Vera Sans" />
    <path
       inkscape:connector-curvature="0"
       d="m 13.74791,37.04268 0,22.85068 29.43479,0 0,-22.85068 -29.43479,0 m -15.23379,50.09076 -2.45288,-2.4529 0,-8.90789 13.16819,-13.2973 0,-25.81997 -11.3608,-9.94069 0,-11.74809 3.74391,-3.61479 11.61898,0 2.19469,2.19469 0,3.3566 3.74391,0 0,-3.3566 2.1947,-2.19469 14.20098,0 2.19471,2.19469 0,3.3566 3.61479,0 0,-3.3566 2.32381,-2.19469 11.61899,0 3.74388,3.61479 0,11.74809 -11.36078,9.94069 0,25.81997 13.16818,13.2973 0,8.90789 -2.4529,2.4529 -59.90236,0 m 2.06562,-10.19888 0,5.03488 55.77114,0 0,-5.03488 -55.77114,0 m 12.65178,-12.78091 -8.5206,8.2624 47.50877,0 -8.52058,-8.2624 -30.46759,0 m 10.32801,-47.37966 0,3.3566 -1.93652,1.80741 -8.39149,0 -1.93649,-1.80741 0,-3.6148 -7.22961,0 -1.6783,1.80741 0,7.2296 8.7788,7.10048 34.59877,0 8.7788,-7.10048 0,-7.2296 -1.6783,-1.80741 -7.22959,0 0,3.6148 -1.93649,1.80741 -8.39151,0 -1.93649,-1.80741 0,-3.3566 -9.81158,0"
       id="path1705"
       style="font-size:12px;font-style:normal;font-weight:normal;fill:#000000;fill-opacity:1;stroke:none;font-family:Bitstream Vera Sans" />
    <path
       inkscape:connector-curvature="0"
       d="m 196.3961,52.14738 c -6.02477,0 -10.71541,-0.25821 -14.0719,-0.7746 0.60235,1.20492 0.90359,2.23772 0.90369,3.09838 -1e-4,1.29102 -0.2583,2.36684 -0.77458,3.22751 2.49582,-0.7746 7.14341,-1.16191 13.94279,-1.16191 6.79914,0 11.44675,0.38731 13.94277,1.16191 -0.5165,-0.86067 -0.77469,-1.93649 -0.77459,-3.22751 -1e-4,-1.03278 0.25809,-2.06558 0.77459,-3.09838 -4.04521,0.51639 -8.69282,0.7746 -13.94277,0.7746 m 0,-46.73416 c -1.80751,0 -3.05548,0.81761 -3.7439,2.45288 -0.17225,0.43033 -0.2583,0.86068 -0.2582,1.291 -1e-4,1.89347 0.94662,3.14144 2.84019,3.7439 0.34416,0.0861 0.73147,0.12911 1.16191,0.12911 1.9794,0 3.27043,-0.90372 3.87299,-2.7111 0.086,-0.34428 0.12898,-0.73158 0.12911,-1.16191 -1.3e-4,-1.72132 -0.86078,-2.88323 -2.58201,-3.48569 -0.5165,-0.17214 -0.98988,-0.25819 -1.42009,-0.25819 m 0,54.86744 c -3.27065,0 -7.48791,0.30124 -12.6518,0.9037 -1.46313,0.17215 -2.3238,0.98977 -2.58199,2.4529 0,1.0328 2.36671,1.6783 7.10048,1.9365 -0.43044,-0.0861 -0.2583,-0.12911 0.51641,-0.12911 0.77448,0 3.31345,0 7.6169,0 10.06967,0 15.10457,-0.60246 15.10469,-1.80739 -1.2e-4,-1.97952 -2.49605,-3.05536 -7.4878,-3.22749 l -3.7439,0 c -1.11897,0 -2.0657,-0.043 -2.84021,-0.12911 l -1.03278,0 m -0.12911,-11.87718 c 9.63936,0 15.53492,-0.90369 17.6867,-2.71111 1.46301,-1.11887 2.53885,-4.08816 3.22749,-8.90789 -0.43044,-4.30333 -3.22761,-8.43453 -8.39151,-12.3936 -4.81982,-3.78691 -9.03709,-5.89555 -12.65178,-6.32589 -3.35671,0.43034 -7.44486,2.53898 -12.2645,6.32589 -5.07792,3.95907 -7.83205,8.09027 -8.26239,12.3936 0.60248,4.47546 1.54921,7.31567 2.84021,8.52059 0.34426,0.34427 0.73157,0.6455 1.16189,0.90369 2.15168,1.46315 7.70286,2.19472 16.65389,2.19472 m -2.19469,-6.3259 0,-5.6804 -4.3894,0 0,-5.0349 4.3894,0 0,-5.55129 4.6476,0 0,5.55129 4.38938,0 0,5.0349 -4.38938,0 0,5.6804 -4.6476,0 m 2.06559,26.33637 c -0.77469,0 -3.05548,1.50618 -6.84229,4.51851 -2.66817,1.80739 -6.9714,2.88323 -12.90999,3.22749 -4.30333,0 -7.746,0.21516 -10.328,0.6455 -2.75411,0.60246 -4.13119,1.76437 -4.13119,3.48569 0.2582,1.72134 1.16189,2.58201 2.7111,2.58201 l 6.8423,-1.0328 c 4.47544,0 9.16608,-0.60246 14.07187,-1.80741 5.59422,-1.46312 9.20902,-3.78692 10.84441,-6.97139 2.32368,4.56155 8.34834,7.31566 18.07398,8.26239 -1e-4,0 1.11875,0.17215 3.3566,0.51641 2.23763,0 3.3565,0 3.3566,0 l 6.97139,1.0328 c 1.54909,0 2.45278,-0.86067 2.71108,-2.58201 -1e-4,-1.72132 -1.37717,-2.88323 -4.13118,-3.48569 l -13.81368,-1.0328 c -4.38951,-0.34427 -8.60677,-2.0656 -12.6518,-5.16398 -1.80751,-1.46315 -3.18458,-2.19472 -4.1312,-2.19472 m 0.25821,11.23169 c -3.3567,3.3566 -8.43464,5.4222 -15.23379,6.19681 -2.75414,0.25819 -7.57386,0.86066 -14.45921,1.80738 -1.80738,0.34428 -2.84018,1.16191 -3.09838,2.45291 -1.63526,-0.43033 -4.04514,-3.0984 -7.22959,-8.00419 -0.7746,-1.20493 -1.33403,-2.02257 -1.6783,-2.45291 2.84019,-5.42218 6.36892,-8.13328 10.58619,-8.13328 l 7.6169,0.3873 c 3.52873,0 7.65991,-0.81764 12.39357,-2.4529 -6.11071,-0.77459 -9.16608,-2.62503 -9.16608,-5.5513 l 2.58199,-9.81158 c 0,-0.0861 0,-0.17215 0,-0.25822 -5.16398,-5.68037 -7.74599,-11.01651 -7.74599,-16.00837 0,-5.6804 2.79716,-10.84439 8.39149,-15.49199 4.90569,-4.13121 8.52048,-6.3259 10.84439,-6.58411 -1.89356,-2.32378 -2.8403,-4.73364 -2.84019,-7.22959 -1.1e-4,-3.95907 1.97943,-6.45499 5.9386,-7.48779 0.94662,-0.25809 1.97942,-0.3872 3.0984,-0.38731 4.21715,1.1e-4 6.97127,1.59224 8.26239,4.77672 l 0.6455,2.7111 0,0.38728 c -1e-4,2.66806 -0.90382,5.07794 -2.7111,7.22959 2.32369,0.25821 5.98153,2.49594 10.9735,6.7132 5.50814,4.56152 8.26228,9.6825 8.26239,15.3629 -1.1e-4,4.81972 -2.58212,10.15585 -7.746,16.00837 -1e-4,1.20495 0.43023,2.92628 1.29099,5.16401 0.86056,2.75414 1.2909,4.3894 1.291,4.90579 -1e-4,2.92627 -3.05548,4.77671 -9.16609,5.5513 4.64749,1.63526 8.77868,2.4529 12.3936,2.4529 l 7.61689,-0.3873 c 4.21716,0 7.74589,2.7111 10.5862,8.13328 l -4.3894,6.7132 c -1.46325,1.89346 -2.96941,3.14144 -4.5185,3.7439 -0.34438,-1.72133 -2.84031,-2.79717 -7.4878,-3.22749 0.60235,0 -0.68864,-0.12911 -3.87299,-0.3873 -10.75844,-1.03281 -17.90196,-3.31356 -21.43058,-6.84231"
       id="path1700"
       style="font-size:12px;font-style:normal;font-weight:normal;fill:#000000;fill-opacity:1;stroke:none;font-family:Bitstream Vera Sans" />
    <path
       inkscape:connector-curvature="0"
       d="m 333.98829,56.66587 c 1.20493,0 1.8074,0.81763 1.8074,2.45289 0,2.15168 -1.07583,3.22751 -3.22751,3.22751 -0.86065,0 -1.29099,-0.68853 -1.29099,-2.06561 0,-2.40986 0.90369,-3.61479 2.7111,-3.61479 m 9.2952,-15.7502 c -1.20493,0 -1.80741,-0.73155 -1.80741,-2.19469 0,-2.3238 1.37707,-4.21725 4.13121,-5.6804 1.20492,-0.60246 2.32379,-0.90369 3.35659,-0.90369 1.80739,0 2.79715,0.60246 2.9693,1.80741 0,1.97953 -1.54921,3.87299 -4.6476,5.68037 -1.54921,0.86069 -2.88322,1.291 -4.00209,1.291 m 1.0328,-24.27077 c 0.34426,1.20493 0.51639,2.02258 0.51639,2.45289 0,0.25821 -0.12909,0.94673 -0.3873,2.0656 1.37706,0 3.27055,-0.68853 5.68039,-2.0656 -2.32379,-1.20492 -4.26029,-2.02257 -5.80948,-2.45289 m -15.3629,44.41037 c 0.51641,2.06558 1.89346,3.57177 4.1312,4.51849 0.86067,0.34427 1.6783,0.51639 2.45289,0.51639 l 0.25821,0 c 0.17213,0 1.11886,-0.51639 2.8402,-1.54919 0.51639,-0.34427 0.94673,-0.51639 1.291,-0.51639 l 0.51639,0 c 0.43033,0 0.64552,0.25819 0.64552,0.77458 l -0.77461,2.45291 c 0,0.7746 0.60246,1.16189 1.80739,1.16189 0.17214,0 1.24798,-1.50616 3.22751,-4.51849 3.78692,-5.85252 9.16608,-10.28496 16.13749,-13.29729 0.68852,-4.6476 2.40986,-8.73575 5.16398,-12.26449 0.68854,-0.94674 1.37707,-1.42009 2.0656,-1.42009 0.77461,0 1.16191,0.55943 1.16191,1.67828 0,0.25822 -0.7746,2.7111 -2.3238,7.3587 -0.60247,1.97953 -0.90371,3.44267 -0.90371,4.38941 0,0.25819 0.0861,0.81763 0.25822,1.6783 0,6.11071 -2.58202,12.52268 -7.746,19.23588 -3.44268,4.6476 -5.33613,8.34846 -5.68041,11.10258 l 42.60296,0 c 0.34428,-3.95906 0.51641,-6.88532 0.51641,-8.77878 0,-17.72973 -5.55128,-31.88769 -16.65389,-42.47387 -3.3566,-3.09841 -6.0677,-4.6476 -8.13328,-4.6476 l -7.746,0 c -0.68854,-0.34427 -1.37708,-2.06561 -2.0656,-5.16399 -0.51639,-2.49594 -1.16189,-4.04514 -1.9365,-4.6476 -1.03281,3.09839 -4.21726,5.50826 -9.55339,7.22959 -2.84019,0.86066 -4.81973,1.72134 -5.9386,2.582 -0.94673,3.01233 -3.7439,9.12307 -8.3915,18.33219 -4.56152,9.12305 -6.9714,14.54525 -7.22959,16.26659 m 72.29595,26.07817 -54.09286,0 c 0.34426,-5.93859 2.58199,-11.61898 6.71319,-17.04118 3.18447,-4.30334 5.07794,-6.92837 5.68041,-7.8751 1.20492,-1.89346 1.9365,-4.17422 2.19469,-6.84229 -5.59433,2.40985 -9.9407,5.85253 -13.03908,10.328 l -1.80741,2.9693 c -1.29099,2.06558 -2.10864,3.22749 -2.4529,3.48569 -0.51639,0.43033 -1.07582,0.6455 -1.6783,0.6455 -2.66805,0 -4.47546,-0.9037 -5.42218,-2.7111 -0.17215,-0.2582 -0.25821,-0.55943 -0.25821,-0.9037 -0.86067,0.43033 -1.72133,0.6455 -2.58201,0.6455 -4.13119,0 -7.40172,-2.582 -9.81158,-7.74601 0.68853,-3.78692 4.30333,-12.52268 10.84438,-26.20726 0.68854,-1.291 1.20495,-2.3238 1.54921,-3.0984 2.582,-5.76648 3.873,-10.11282 3.873,-13.0391 0,-0.43032 -0.25819,-2.84019 -0.77461,-7.22959 l 1.03281,0 c 4.64759,0 9.08003,1.46314 13.29728,4.3894 2.3238,-4.04514 4.26029,-6.0677 5.8095,-6.0677 2.75413,1.46314 4.64759,3.52874 5.68039,6.19681 l 1.42011,4.26029 c 0.86065,-0.17214 1.59223,-0.2582 2.19469,-0.2582 6.88534,0 13.6846,4.38939 20.39779,13.16819 7.83206,10.24192 11.74808,24.27077 11.74808,42.08657 0,4.04512 -0.17212,7.65991 -0.51639,10.84438"
       id="path1693"
       style="font-size:12px;font-style:normal;font-weight:normal;fill:#000000;fill-opacity:1;stroke:none;font-family:Bitstream Vera Sans" />
    <path
       inkscape:connector-curvature="0"
       d="m 555.49553,81.96944 c -10e-5,-9.03698 -2.453,-15.79321 -7.3587,-20.26867 -1.63536,-1.54921 -3.65793,-3.01234 -6.06768,-4.3894 -3.3567,-1.97953 -5.035,-3.78694 -5.0349,-5.4222 -1e-4,-0.86067 0.86055,-1.80739 2.58199,-2.84019 2.66796,-1.46314 4.26019,-3.18448 4.77671,-5.16402 0.17202,-0.77458 0.25809,-1.7213 0.25819,-2.84018 -1e-4,-3.95906 -2.02266,-7.05746 -6.0677,-9.29519 l -2.32379,-1.6783 c -0.43045,-0.43032 -0.64561,-0.9037 -0.6455,-1.42011 -1.1e-4,-1.46312 0.51628,-2.92626 1.54919,-4.38939 0.68843,-0.94672 1.0327,-2.0656 1.0328,-3.3566 -10e-5,-2.23771 -1.20503,-3.87298 -3.61479,-4.90579 -0.77471,-0.25821 -1.5493,-0.3873 -2.3238,-0.3873 -2.40998,0 -4.1313,1.07584 -5.164,3.22749 -0.34436,0.68854 -0.51651,1.37708 -0.51641,2.0656 -10e-5,0.77461 0.55935,2.23773 1.67831,4.38941 0.68843,1.20492 0.98966,2.3238 0.90372,3.35658 -1.4e-4,1.0328 -0.9899,2.0656 -2.96931,3.09841 -3.95918,2.32379 -5.93872,5.4222 -5.93859,9.29519 -1.3e-4,3.3566 1.67817,6.02467 5.03488,8.0042 1.63516,1.11885 2.4528,2.0656 2.45291,2.84019 -1.1e-4,1.63526 -1.67841,3.44267 -5.03491,5.4222 -6.19678,3.78692 -10.15585,8.3915 -11.87718,13.81369 -0.94673,3.01232 -1.4201,6.62713 -1.4201,10.84438 l 46.08866,0 m -50.60716,5.164 c -0.0861,-1.0328 -0.12911,-3.01232 -0.12911,-5.93859 0,-10.58618 3.09841,-18.50431 9.2952,-23.75437 2.0656,-1.72134 4.69053,-3.39964 7.87509,-5.0349 -3.27053,-1.0328 -5.46522,-3.52875 -6.58409,-7.48781 -0.43032,-1.291 -0.6455,-2.62503 -0.6455,-4.0021 0,-5.76645 2.92626,-9.89766 8.7788,-12.39357 -1.37717,-2.49595 -2.06571,-4.94883 -2.0656,-7.35871 -1.1e-4,-3.95906 1.93639,-6.88532 5.80948,-8.77878 1.63517,-0.77461 3.39954,-1.16191 5.2931,-1.16191 4.3893,0 7.61679,1.6783 9.6825,5.0349 0.94663,1.46314 1.42,3.0984 1.4201,4.90579 -10e-5,2.3238 -0.77471,4.77671 -2.3238,7.35871 5.93849,2.40986 8.90779,6.54105 8.9079,12.39357 -1.1e-4,4.56155 -1.67841,8.0042 -5.03491,10.328 -0.68863,0.51641 -1.46324,0.90371 -2.3238,1.16191 7.7459,3.95906 12.78079,8.99396 15.10471,15.10467 1.46302,3.78694 2.19459,8.34847 2.19469,13.6846 -1e-4,2.84019 -0.0431,4.81972 -0.12911,5.93859 l -55.12565,0"
       id="path1688"
       style="font-size:12px;font-style:normal;font-weight:normal;fill:#000000;fill-opacity:1;stroke:none;font-family:Bitstream Vera Sans" />
  </g>
  <g
     inkscape:label="Layer 1"
     inkscape:groupmode="layer"
     id="layer1"
     transform="translate(0,-287.36218)">
    <g
       id="g4050"
       transform="matrix(0.97199526,0,0,0.95249392,65.14256,-506.24772)">
      <path
         inkscape:connector-curvature="0"
         id="path3154"
         d="m 205,916.3622 3.5,3.5 10.5,0 3.5,-3.5 0,-10.5 -3.5,-3.5 -10.5,0 -3.5,3.5 z"
         style="fill:#ffffff;stroke:#b3b3b3;stroke-width:0.69999987px;stroke-linecap:butt;stroke-linejoin:miter;stroke-opacity:1" />
      <path
         style="fill:#cccccc;stroke:#b3b3b3;stroke-width:0.69999987px;stroke-linecap:butt;stroke-linejoin:miter;stroke-opacity:1"
         d="m 222.5,916.36219 3.5,3.5 10.5,0 3.5,-3.5 0,-10.5 -3.5,-3.49999 -10.5,0 -3.5,3.49999 z"
         id="path3156"
         inkscape:connector-curvature="0" />
      <path
         style="fill:#ffffff;stroke:#b3b3b3;stroke-width:0.69999987px;stroke-linecap:butt;stroke-linejoin:miter;stroke-opacity:1"
         d="m 240,916.36219 3.5,3.5 10.5,0 3.5,-3.5 0,-10.5 -3.5,-3.49999 -10.5,0 -3.5,3.49999 z"
         id="path3926"
         inkscape:connector-curvature="0" />
      <path
         inkscape:connector-curvature="0"
         id="path3928"
         d="m 257.5,916.36219 3.5,3.5 10.5,0 3.5,-3.5 0,-10.5 -3.5,-3.49999 -10.5,0 -3.5,3.49999 z"
         style="fill:#cccccc;stroke:#b3b3b3;stroke-width:0.69999987px;stroke-linecap:butt;stroke-linejoin:miter;stroke-opacity:1" />
      <path
         style="fill:#ffffff;stroke:#b3b3b3;stroke-width:0.69561112px;stroke-linecap:butt;stroke-linejoin:miter;stroke-opacity:1"
         d="m 222.5,933.86218 3.5,3.45626 10.5,0 3.5,-3.45626 0,-10.36874 -3.5,-3.45624 -10.5,0 -3.5,3.45624 z"
         id="path3930"
         inkscape:connector-curvature="0" />
      <path
         inkscape:connector-curvature="0"
         id="path3932"
         d="m 257.5,933.73093 3.5,3.45626 10.5,0 3.5,-3.45626 0,-10.36874 -3.5,-3.45624 -10.5,0 -3.5,3.45624 z"
         style="fill:#ffffff;stroke:#b3b3b3;stroke-width:0.69561112px;stroke-linecap:butt;stroke-linejoin:miter;stroke-opacity:1" />
      <path
         style="fill:#cccccc;stroke:#b3b3b3;stroke-width:0.69999987px;stroke-linecap:butt;stroke-linejoin:miter;stroke-opacity:1"
         d="m 240,933.86218 3.5,3.5 10.5,0 3.5,-3.5 0,-10.49999 -3.5,-3.5 -10.5,0 -3.5,3.5 z"
         id="path3934"
         inkscape:connector-curvature="0" />
      <path
         inkscape:connector-curvature="0"
         id="path3936"
         d="m 205,933.86218 3.5,3.5 10.5,0 3.5,-3.5 0,-10.49999 -3.5,-3.5 -10.5,0 -3.5,3.5 z"
         style="fill:#cccccc;stroke:#b3b3b3;stroke-width:0.69999987px;stroke-linecap:butt;stroke-linejoin:miter;stroke-opacity:1" />
      <path
         style="fill:#ffffff;stroke:#b3b3b3;stroke-width:0.69999987px;stroke-linecap:butt;stroke-linejoin:miter;stroke-opacity:1"
         d="m 275,916.36219 3.5,3.5 10.5,0 3.5,-3.5 0,-10.5 -3.5,-3.49999 -10.5,0 -3.5,3.49999 z"
         id="path3938"
         inkscape:connector-curvature="0" />
      <path
         inkscape:connector-curvature="0"
         id="path3940"
         d="m 292.5,916.36219 3.5,3.5 10.5,0 3.5,-3.5 0,-10.5 -3.5,-3.49999 -10.5,0 -3.5,3.49999 z"
         style="fill:#cccccc;stroke:#b3b3b3;stroke-width:0.69999987px;stroke-linecap:butt;stroke-linejoin:miter;stroke-opacity:1" />
      <path
         inkscape:connector-curvature="0"
         id="path3942"
         d="m 310,916.36219 3.5,3.5 10.5,0 3.5,-3.5 0,-10.5 -3.5,-3.49999 -10.5,0 -3.5,3.49999 z"
         style="fill:#ffffff;stroke:#b3b3b3;stroke-width:0.69999987px;stroke-linecap:butt;stroke-linejoin:miter;stroke-opacity:1" />
      <path
         style="fill:#cccccc;stroke:#b3b3b3;stroke-width:0.69999987px;stroke-linecap:butt;stroke-linejoin:miter;stroke-opacity:1"
         d="m 327.5,916.36219 3.5,3.5 10.5,0 3.5,-3.5 0,-10.5 -3.5,-3.49999 -10.5,0 -3.5,3.49999 z"
         id="path3944"
         inkscape:connector-curvature="0" />
      <path
         inkscape:connector-curvature="0"
         id="path3946"
         d="m 292.5,933.86218 3.5,3.45626 10.5,0 3.5,-3.45626 0,-10.36874 -3.5,-3.45624 -10.5,0 -3.5,3.45624 z"
         style="fill:#ffffff;stroke:#b3b3b3;stroke-width:0.69561112px;stroke-linecap:butt;stroke-linejoin:miter;stroke-opacity:1" />
      <path
         style="fill:#ffffff;stroke:#b3b3b3;stroke-width:0.69561112px;stroke-linecap:butt;stroke-linejoin:miter;stroke-opacity:1"
         d="m 327.5,933.73093 3.5,3.45626 10.5,0 3.5,-3.45626 0,-10.36874 -3.5,-3.45624 -10.5,0 -3.5,3.45624 z"
         id="path3948"
         inkscape:connector-curvature="0" />
      <path
         inkscape:connector-curvature="0"
         id="path3950"
         d="m 310,933.86218 3.5,3.5 10.5,0 3.5,-3.5 0,-10.49999 -3.5,-3.5 -10.5,0 -3.5,3.5 z"
         style="fill:#cccccc;stroke:#b3b3b3;stroke-width:0.69999987px;stroke-linecap:butt;stroke-linejoin:miter;stroke-opacity:1" />
      <path
         style="fill:#cccccc;stroke:#b3b3b3;stroke-width:0.69999987px;stroke-linecap:butt;stroke-linejoin:miter;stroke-opacity:1"
         d="m 275,933.86218 3.5,3.5 10.5,0 3.5,-3.5 0,-10.49999 -3.5,-3.5 -10.5,0 -3.5,3.5 z"
         id="path3952"
         inkscape:connector-curvature="0" />
      <path
         style="fill:#ffffff;stroke:#b3b3b3;stroke-width:0.69999987px;stroke-linecap:butt;stroke-linejoin:miter;stroke-opacity:1"
         d="m 205,951.36218 3.5,3.5 10.5,0 3.5,-3.5 0,-10.5 -3.5,-3.5 -10.5,0 -3.5,3.5 z"
         id="path3954"
         inkscape:connector-curvature="0" />
      <path
         inkscape:connector-curvature="0"
         id="path3956"
         d="m 222.5,951.36218 3.5,3.5 10.5,0 3.5,-3.5 0,-10.5 -3.5,-3.5 -10.5,0 -3.5,3.5 z"
         style="fill:#cccccc;stroke:#b3b3b3;stroke-width:0.69999987px;stroke-linecap:butt;stroke-linejoin:miter;stroke-opacity:1" />
      <path
         inkscape:connector-curvature="0"
         id="path3958"
         d="m 240,951.36218 3.5,3.5 10.5,0 3.5,-3.5 0,-10.5 -3.5,-3.5 -10.5,0 -3.5,3.5 z"
         style="fill:#ffffff;stroke:#b3b3b3;stroke-width:0.69999987px;stroke-linecap:butt;stroke-linejoin:miter;stroke-opacity:1" />
      <path
         style="fill:#cccccc;stroke:#b3b3b3;stroke-width:0.69999987px;stroke-linecap:butt;stroke-linejoin:miter;stroke-opacity:1"
         d="m 257.5,951.36218 3.5,3.5 10.5,0 3.5,-3.5 0,-10.5 -3.5,-3.5 -10.5,0 -3.5,3.5 z"
         id="path3960"
         inkscape:connector-curvature="0" />
      <path
         inkscape:connector-curvature="0"
         id="path3962"
         d="m 222.5,968.86217 3.5,3.45626 10.5,0 3.5,-3.45626 0,-10.36874 -3.5,-3.45625 -10.5,0 -3.5,3.45625 z"
         style="fill:#ffffff;stroke:#b3b3b3;stroke-width:0.69561112px;stroke-linecap:butt;stroke-linejoin:miter;stroke-opacity:1" />
      <path
         style="fill:#ffffff;stroke:#b3b3b3;stroke-width:0.69561112px;stroke-linecap:butt;stroke-linejoin:miter;stroke-opacity:1"
         d="m 257.5,968.73092 3.5,3.45626 10.5,0 3.5,-3.45626 0,-10.36874 -3.5,-3.45625 -10.5,0 -3.5,3.45625 z"
         id="path3964"
         inkscape:connector-curvature="0" />
      <path
         inkscape:connector-curvature="0"
         id="path3966"
         d="m 240,968.86217 3.5,3.50001 10.5,0 3.5,-3.50001 0,-10.49999 -3.5,-3.5 -10.5,0 -3.5,3.5 z"
         style="fill:#cccccc;stroke:#b3b3b3;stroke-width:0.69999987px;stroke-linecap:butt;stroke-linejoin:miter;stroke-opacity:1" />
      <path
         style="fill:#cccccc;stroke:#b3b3b3;stroke-width:0.69999987px;stroke-linecap:butt;stroke-linejoin:miter;stroke-opacity:1"
         d="m 205,968.86217 3.5,3.50001 10.5,0 3.5,-3.50001 0,-10.49999 -3.5,-3.5 -10.5,0 -3.5,3.5 z"
         id="path3968"
         inkscape:connector-curvature="0" />
      <path
         inkscape:connector-curvature="0"
         id="path3970"
         d="m 275,951.36218 3.5,3.5 10.5,0 3.5,-3.5 0,-10.5 -3.5,-3.5 -10.5,0 -3.5,3.5 z"
         style="fill:#ffffff;stroke:#b3b3b3;stroke-width:0.69999987px;stroke-linecap:butt;stroke-linejoin:miter;stroke-opacity:1" />
      <path
         style="fill:#cccccc;stroke:#b3b3b3;stroke-width:0.69999987px;stroke-linecap:butt;stroke-linejoin:miter;stroke-opacity:1"
         d="m 292.5,951.36218 3.5,3.5 10.5,0 3.5,-3.5 0,-10.5 -3.5,-3.5 -10.5,0 -3.5,3.5 z"
         id="path3972"
         inkscape:connector-curvature="0" />
      <path
         style="fill:#ffffff;stroke:#b3b3b3;stroke-width:0.69999987px;stroke-linecap:butt;stroke-linejoin:miter;stroke-opacity:1"
         d="m 310,951.36218 3.5,3.5 10.5,0 3.5,-3.5 0,-10.5 -3.5,-3.5 -10.5,0 -3.5,3.5 z"
         id="path3974"
         inkscape:connector-curvature="0" />
      <path
         inkscape:connector-curvature="0"
         id="path3976"
         d="m 327.5,951.36218 3.5,3.5 10.5,0 3.5,-3.5 0,-10.5 -3.5,-3.5 -10.5,0 -3.5,3.5 z"
         style="fill:#cccccc;stroke:#b3b3b3;stroke-width:0.69999987px;stroke-linecap:butt;stroke-linejoin:miter;stroke-opacity:1" />
      <path
         style="fill:#ffffff;stroke:#b3b3b3;stroke-width:0.69561112px;stroke-linecap:butt;stroke-linejoin:miter;stroke-opacity:1"
         d="m 292.5,968.86217 3.5,3.45626 10.5,0 3.5,-3.45626 0,-10.36874 -3.5,-3.45625 -10.5,0 -3.5,3.45625 z"
         id="path3978"
         inkscape:connector-curvature="0" />
      <path
         inkscape:connector-curvature="0"
         id="path3980"
         d="m 327.5,968.73092 3.5,3.45626 10.5,0 3.5,-3.45626 0,-10.36874 -3.5,-3.45625 -10.5,0 -3.5,3.45625 z"
         style="fill:#ffffff;stroke:#b3b3b3;stroke-width:0.69561112px;stroke-linecap:butt;stroke-linejoin:miter;stroke-opacity:1" />
      <path
         style="fill:#cccccc;stroke:#b3b3b3;stroke-width:0.69999987px;stroke-linecap:butt;stroke-linejoin:miter;stroke-opacity:1"
         d="m 310,968.86217 3.5,3.50001 10.5,0 3.5,-3.50001 0,-10.49999 -3.5,-3.5 -10.5,0 -3.5,3.5 z"
         id="path3982"
         inkscape:connector-curvature="0" />
      <path
         inkscape:connector-curvature="0"
         id="path3984"
         d="m 275,968.86217 3.5,3.50001 10.5,0 3.5,-3.50001 0,-10.49999 -3.5,-3.5 -10.5,0 -3.5,3.5 z"
         style="fill:#cccccc;stroke:#b3b3b3;stroke-width:0.69999987px;stroke-linecap:butt;stroke-linejoin:miter;stroke-opacity:1" />
      <path
         style="fill:#ffffff;stroke:#b3b3b3;stroke-width:0.69999987px;stroke-linecap:butt;stroke-linejoin:miter;stroke-opacity:1"
         d="m 205,986.36218 3.5,3.5 10.5,0 3.5,-3.5 0,-10.5 -3.5,-3.5 -10.5,0 -3.5,3.5 z"
         id="path3986"
         inkscape:connector-curvature="0" />
      <path
         inkscape:connector-curvature="0"
         id="path3988"
         d="m 222.5,986.36217 3.5,3.5 10.5,0 3.5,-3.5 0,-10.5 -3.5,-3.49999 -10.5,0 -3.5,3.49999 z"
         style="fill:#cccccc;stroke:#b3b3b3;stroke-width:0.69999987px;stroke-linecap:butt;stroke-linejoin:miter;stroke-opacity:1" />
      <path
         inkscape:connector-curvature="0"
         id="path3990"
         d="m 240,986.36217 3.5,3.5 10.5,0 3.5,-3.5 0,-10.5 -3.5,-3.49999 -10.5,0 -3.5,3.49999 z"
         style="fill:#ffffff;stroke:#b3b3b3;stroke-width:0.69999987px;stroke-linecap:butt;stroke-linejoin:miter;stroke-opacity:1" />
      <path
         style="fill:#cccccc;stroke:#b3b3b3;stroke-width:0.69999987px;stroke-linecap:butt;stroke-linejoin:miter;stroke-opacity:1"
         d="m 257.5,986.36217 3.5,3.5 10.5,0 3.5,-3.5 0,-10.5 -3.5,-3.49999 -10.5,0 -3.5,3.49999 z"
         id="path3992"
         inkscape:connector-curvature="0" />
      <path
         inkscape:connector-curvature="0"
         id="path3994"
         d="m 222.5,1003.8622 3.5,3.4562 10.5,0 3.5,-3.4562 0,-10.36878 -3.5,-3.45624 -10.5,0 -3.5,3.45624 z"
         style="fill:#ffffff;stroke:#b3b3b3;stroke-width:0.69561112px;stroke-linecap:butt;stroke-linejoin:miter;stroke-opacity:1" />
      <path
         style="fill:#ffffff;stroke:#b3b3b3;stroke-width:0.69561112px;stroke-linecap:butt;stroke-linejoin:miter;stroke-opacity:1"
         d="m 257.5,1003.7309 3.5,3.4563 10.5,0 3.5,-3.4563 0,-10.36873 -3.5,-3.45624 -10.5,0 -3.5,3.45624 z"
         id="path3996"
         inkscape:connector-curvature="0" />
      <path
         inkscape:connector-curvature="0"
         id="path3998"
         d="m 240,1003.8622 3.5,3.5 10.5,0 3.5,-3.5 0,-10.50003 -3.5,-3.5 -10.5,0 -3.5,3.5 z"
         style="fill:#cccccc;stroke:#b3b3b3;stroke-width:0.69999987px;stroke-linecap:butt;stroke-linejoin:miter;stroke-opacity:1" />
      <path
         style="fill:#cccccc;stroke:#b3b3b3;stroke-width:0.69999987px;stroke-linecap:butt;stroke-linejoin:miter;stroke-opacity:1"
         d="m 205,1003.8622 3.5,3.5 10.5,0 3.5,-3.5 0,-10.50003 -3.5,-3.5 -10.5,0 -3.5,3.5 z"
         id="path4000"
         inkscape:connector-curvature="0" />
      <path
         inkscape:connector-curvature="0"
         id="path4002"
         d="m 275,986.36217 3.5,3.5 10.5,0 3.5,-3.5 0,-10.5 -3.5,-3.49999 -10.5,0 -3.5,3.49999 z"
         style="fill:#ffffff;stroke:#b3b3b3;stroke-width:0.69999987px;stroke-linecap:butt;stroke-linejoin:miter;stroke-opacity:1" />
      <path
         style="fill:#cccccc;stroke:#b3b3b3;stroke-width:0.69999987px;stroke-linecap:butt;stroke-linejoin:miter;stroke-opacity:1"
         d="m 292.5,986.36217 3.5,3.5 10.5,0 3.5,-3.5 0,-10.5 -3.5,-3.49999 -10.5,0 -3.5,3.49999 z"
         id="path4004"
         inkscape:connector-curvature="0" />
      <path
         style="fill:#ffffff;stroke:#b3b3b3;stroke-width:0.69999987px;stroke-linecap:butt;stroke-linejoin:miter;stroke-opacity:1"
         d="m 310,986.36217 3.5,3.5 10.5,0 3.5,-3.5 0,-10.5 -3.5,-3.49999 -10.5,0 -3.5,3.49999 z"
         id="path4006"
         inkscape:connector-curvature="0" />
      <path
         inkscape:connector-curvature="0"
         id="path4008"
         d="m 327.5,986.36217 3.5,3.5 10.5,0 3.5,-3.5 0,-10.5 -3.5,-3.49999 -10.5,0 -3.5,3.49999 z"
         style="fill:#cccccc;stroke:#b3b3b3;stroke-width:0.69999987px;stroke-linecap:butt;stroke-linejoin:miter;stroke-opacity:1" />
      <path
         style="fill:#ffffff;stroke:#b3b3b3;stroke-width:0.69561112px;stroke-linecap:butt;stroke-linejoin:miter;stroke-opacity:1"
         d="m 292.5,1003.8622 3.5,3.4562 10.5,0 3.5,-3.4562 0,-10.36878 -3.5,-3.45624 -10.5,0 -3.5,3.45624 z"
         id="path4010"
         inkscape:connector-curvature="0" />
      <path
         inkscape:connector-curvature="0"
         id="path4012"
         d="m 327.5,1003.7309 3.5,3.4563 10.5,0 3.5,-3.4563 0,-10.36873 -3.5,-3.45624 -10.5,0 -3.5,3.45624 z"
         style="fill:#ffffff;stroke:#b3b3b3;stroke-width:0.69561112px;stroke-linecap:butt;stroke-linejoin:miter;stroke-opacity:1" />
      <path
         style="fill:#cccccc;stroke:#b3b3b3;stroke-width:0.69999987px;stroke-linecap:butt;stroke-linejoin:miter;stroke-opacity:1"
         d="m 310,1003.8622 3.5,3.5 10.5,0 3.5,-3.5 0,-10.50003 -3.5,-3.5 -10.5,0 -3.5,3.5 z"
         id="path4014"
         inkscape:connector-curvature="0" />
      <path
         inkscape:connector-curvature="0"
         id="path4016"
         d="m 275,1003.8622 3.5,3.5 10.5,0 3.5,-3.5 0,-10.50003 -3.5,-3.5 -10.5,0 -3.5,3.5 z"
         style="fill:#cccccc;stroke:#b3b3b3;stroke-width:0.69999987px;stroke-linecap:butt;stroke-linejoin:miter;stroke-opacity:1" />
      <path
         inkscape:connector-curvature="0"
         id="path4018"
         d="m 205,1021.3622 3.5,3.5 10.5,0 3.5,-3.5 0,-10.5 -3.5,-3.5 -10.5,0 -3.5,3.5 z"
         style="fill:#ffffff;stroke:#b3b3b3;stroke-width:0.69999987px;stroke-linecap:butt;stroke-linejoin:miter;stroke-opacity:1" />
      <path
         style="fill:#cccccc;stroke:#b3b3b3;stroke-width:0.69999987px;stroke-linecap:butt;stroke-linejoin:miter;stroke-opacity:1"
         d="m 222.5,1021.3622 3.5,3.5 10.5,0 3.5,-3.5 0,-10.5 -3.5,-3.5 -10.5,0 -3.5,3.5 z"
         id="path4020"
         inkscape:connector-curvature="0" />
      <path
         style="fill:#ffffff;stroke:#b3b3b3;stroke-width:0.69999987px;stroke-linecap:butt;stroke-linejoin:miter;stroke-opacity:1"
         d="m 240,1021.3622 3.5,3.5 10.5,0 3.5,-3.5 0,-10.5 -3.5,-3.5 -10.5,0 -3.5,3.5 z"
         id="path4022"
         inkscape:connector-curvature="0" />
      <path
         inkscape:connector-curvature="0"
         id="path4024"
         d="m 257.5,1021.3622 3.5,3.5 10.5,0 3.5,-3.5 0,-10.5 -3.5,-3.5 -10.5,0 -3.5,3.5 z"
         style="fill:#cccccc;stroke:#b3b3b3;stroke-width:0.69999987px;stroke-linecap:butt;stroke-linejoin:miter;stroke-opacity:1" />
      <path
         style="fill:#ffffff;stroke:#b3b3b3;stroke-width:0.69561112px;stroke-linecap:butt;stroke-linejoin:miter;stroke-opacity:1"
         d="m 222.5,1038.8622 3.5,3.4562 10.5,0 3.5,-3.4562 0,-10.3688 -3.5,-3.4562 -10.5,0 -3.5,3.4562 z"
         id="path4026"
         inkscape:connector-curvature="0" />
      <path
         inkscape:connector-curvature="0"
         id="path4028"
         d="m 257.5,1038.7309 3.5,3.4563 10.5,0 3.5,-3.4563 0,-10.3687 -3.5,-3.4563 -10.5,0 -3.5,3.4563 z"
         style="fill:#ffffff;stroke:#b3b3b3;stroke-width:0.69561112px;stroke-linecap:butt;stroke-linejoin:miter;stroke-opacity:1" />
      <path
         style="fill:#cccccc;stroke:#b3b3b3;stroke-width:0.69999987px;stroke-linecap:butt;stroke-linejoin:miter;stroke-opacity:1"
         d="m 240,1038.8622 3.5,3.5 10.5,0 3.5,-3.5 0,-10.5 -3.5,-3.5 -10.5,0 -3.5,3.5 z"
         id="path4030"
         inkscape:connector-curvature="0" />
      <path
         inkscape:connector-curvature="0"
         id="path4032"
         d="m 205,1038.8622 3.5,3.5 10.5,0 3.5,-3.5 0,-10.5 -3.5,-3.5 -10.5,0 -3.5,3.5 z"
         style="fill:#cccccc;stroke:#b3b3b3;stroke-width:0.69999987px;stroke-linecap:butt;stroke-linejoin:miter;stroke-opacity:1" />
      <path
         style="fill:#ffffff;stroke:#b3b3b3;stroke-width:0.69999987px;stroke-linecap:butt;stroke-linejoin:miter;stroke-opacity:1"
         d="m 275,1021.3622 3.5,3.5 10.5,0 3.5,-3.5 0,-10.5 -3.5,-3.5 -10.5,0 -3.5,3.5 z"
         id="path4034"
         inkscape:connector-curvature="0" />
      <path
         inkscape:connector-curvature="0"
         id="path4036"
         d="m 292.5,1021.3622 3.5,3.5 10.5,0 3.5,-3.5 0,-10.5 -3.5,-3.5 -10.5,0 -3.5,3.5 z"
         style="fill:#cccccc;stroke:#b3b3b3;stroke-width:0.69999987px;stroke-linecap:butt;stroke-linejoin:miter;stroke-opacity:1" />
      <path
         inkscape:connector-curvature="0"
         id="path4038"
         d="m 310,1021.3622 3.5,3.5 10.5,0 3.5,-3.5 0,-10.5 -3.5,-3.5 -10.5,0 -3.5,3.5 z"
         style="fill:#ffffff;stroke:#b3b3b3;stroke-width:0.69999987px;stroke-linecap:butt;stroke-linejoin:miter;stroke-opacity:1" />
      <path
         style="fill:#cccccc;stroke:#b3b3b3;stroke-width:0.69999987px;stroke-linecap:butt;stroke-linejoin:miter;stroke-opacity:1"
         d="m 327.5,1021.3622 3.5,3.5 10.5,0 3.5,-3.5 0,-10.5 -3.5,-3.5 -10.5,0 -3.5,3.5 z"
         id="path4040"
         inkscape:connector-curvature="0" />
      <path
         inkscape:connector-curvature="0"
         id="path4042"
         d="m 292.5,1038.8622 3.5,3.4562 10.5,0 3.5,-3.4562 0,-10.3688 -3.5,-3.4562 -10.5,0 -3.5,3.4562 z"
         style="fill:#ffffff;stroke:#b3b3b3;stroke-width:0.69561112px;stroke-linecap:butt;stroke-linejoin:miter;stroke-opacity:1" />
      <path
         style="fill:#ffffff;stroke:#b3b3b3;stroke-width:0.69561112px;stroke-linecap:butt;stroke-linejoin:miter;stroke-opacity:1"
         d="m 327.5,1038.7309 3.5,3.4563 10.5,0 3.5,-3.4563 0,-10.3687 -3.5,-3.4563 -10.5,0 -3.5,3.4563 z"
         id="path4044"
         inkscape:connector-curvature="0" />
      <path
         inkscape:connector-curvature="0"
         id="path4046"
         d="m 310,1038.8622 3.5,3.5 10.5,0 3.5,-3.5 0,-10.5 -3.5,-3.5 -10.5,0 -3.5,3.5 z"
         style="fill:#cccccc;stroke:#b3b3b3;stroke-width:0.69999987px;stroke-linecap:butt;stroke-linejoin:miter;stroke-opacity:1" />
      <path
         style="fill:#cccccc;stroke:#b3b3b3;stroke-width:0.69999987px;stroke-linecap:butt;stroke-linejoin:miter;stroke-opacity:1"
         d="m 275,1038.8622 3.5,3.5 10.5,0 3.5,-3.5 0,-10.5 -3.5,-3.5 -10.5,0 -3.5,3.5 z"
         id="path4048"
         inkscape:connector-curvature="0" />
    </g>
    <text
       xml:space="preserve"
       style="font-size:38.48780823px;font-style:normal;font-variant:normal;font-weight:bold;font-stretch:normal;line-height:125%;letter-spacing:0px;word-spacing:0px;fill:#000000;fill-opacity:1;stroke:none;font-family:Futura Md BT;-inkscape-font-specification:Futura Md BT Bold"
       x="100.08698"
       y="385.71054"
       id="text4683"
       sodipodi:linespacing="125%"
       transform="scale(1.0101851,0.98991759)"><tspan
         sodipodi:role="line"
         id="tspan4685"
         x="100.08698"
         y="385.71054">king</tspan></text>
    <text
       xml:space="preserve"
       style="font-size:37.35211182px;font-style:normal;font-variant:normal;font-weight:normal;font-stretch:normal;line-height:125%;letter-spacing:0px;word-spacing:0px;fill:#000000;fill-opacity:1;stroke:none;font-family:Bitstream Vera Sans;-inkscape-font-specification:Bitstream Vera Sans"
       x="70.928574"
       y="391.84372"
       id="text4687"
       sodipodi:linespacing="125%"
       transform="scale(0.98037658,1.0200162)"><tspan
         sodipodi:role="line"
         id="tspan4689"
         x="70.928574"
         y="391.84372"
         style="font-size:9.33802795px">The king can move exactly one square </tspan><tspan
         sodipodi:role="line"
         x="70.928574"
         y="403.51627"
         style="font-size:9.33802795px"
         id="tspan4691">horizontally, vertically, or diagonally. </tspan><tspan
         sodipodi:role="line"
         x="70.928574"
         y="415.18878"
         style="font-size:9.33802795px"
         id="tspan4693">Only once per player, per game.</tspan></text>
    <path
       style="font-size:12px;font-style:normal;font-weight:normal;fill:#000000;fill-opacity:1;stroke:none;display:inline;font-family:Bitstream Vera Sans;stroke-width:0.35433071;stroke-miterlimit:4;stroke-dasharray:none"
       id="path4797"
       d="m 81.626628,369.85721 c 0,0.63453 -0.439858,0.95178 -1.319569,0.95178 -0.985282,0 -1.477921,-0.31725 -1.477921,-0.95178 0,-2.92584 -0.967689,-5.30527 -2.903055,-7.13832 -1.724243,-1.55104 -3.3957,-2.32656 -5.014372,-2.32656 -2.392824,0 -3.888338,0.95178 -4.486547,2.85532 l -0.211132,1.42768 0,0.10574 c 0,1.41004 1.038066,3.36648 3.114192,5.8693 0.563014,0.63452 1.03806,1.12801 1.425138,1.48053 0.563015,0.45826 1.495513,0.68739 2.797489,0.68739 1.372356,0 3.589238,-0.26438 6.650638,-0.79314 3.096598,0.52876 5.331073,0.79314 6.703424,0.79314 1.337166,0 2.269661,-0.22913 2.797498,-0.68739 1.477917,-1.30429 2.709516,-2.89058 3.69479,-4.75888 0.563025,-1.05754 0.844534,-1.92118 0.844534,-2.59095 0,-2.2208 -1.002882,-3.61322 -3.008628,-4.17723 -0.527829,-0.141 -1.090844,-0.21151 -1.689048,-0.21151 -1.61867,0 -3.272536,0.79314 -4.961594,2.37944 -1.970556,1.76255 -2.955837,4.12435 -2.955837,7.08544 m 11.453881,-5.07614 c 0,1.41004 -0.967681,3.06683 -2.90306,4.97039 l -1.372351,1.16329 -0.527829,0.31726 c -0.668585,0.10574 -1.372356,0.15861 -2.111313,0.15861 -2.181691,0 -3.27254,-0.44063 -3.27254,-1.3219 0.07037,-2.71432 0.879717,-4.82938 2.428015,-6.34517 1.33716,-1.33954 2.70952,-2.00932 4.117058,-2.00932 1.794618,0 2.938253,0.65216 3.430884,1.95645 l 0.211136,1.11039 m -5.014368,13.43061 c 0,-0.91651 -2.586362,-1.37479 -7.759082,-1.37479 -1.407542,0 -2.656739,0.0529 -3.747581,0.15864 l -1.26679,0.10575 c -1.900185,0.24676 -2.850277,0.59927 -2.850277,1.05752 0,0.52877 0.475046,0.79315 1.425138,0.79315 l 6.386727,-0.52876 6.333948,0.52876 c 0.98527,0 1.477917,-0.24675 1.477917,-0.74027 m 2.955839,1.26903 c -0.07038,2.39708 -3.659613,3.59561 -10.767704,3.59561 -7.037715,0 -10.609355,-1.19853 -10.714921,-3.59561 -0.0352,-2.25605 -0.369481,-4.26535 -1.002876,-6.0279 -0.387072,-0.95177 -1.126034,-2.16792 -2.216882,-3.64847 -1.372351,-1.86831 -2.058528,-3.5251 -2.058528,-4.97039 0,-2.25606 0.967685,-4.00098 2.903055,-5.23477 1.090848,-0.70502 2.304851,-1.05752 3.642021,-1.05752 1.829804,0 3.57164,0.66977 5.225503,2.0093 0,-1.62154 0.158349,-2.73195 0.475047,-3.33121 0.246316,-0.66977 1.055653,-1.48054 2.428008,-2.43233 l 0,-1.21615 -2.164095,-1.32192 0,-1.90355 1.952964,0 0.633395,-1.95642 1.794614,0 0.686178,1.95642 1.900181,0 0,1.90355 -2.111312,1.32192 0,1.21615 c 1.337165,0.98703 2.164094,1.83306 2.480791,2.53809 l 0.369481,1.53341 c 0.0352,0.423 0.07038,0.98702 0.105565,1.69204 1.653864,-1.33953 3.360514,-2.0093 5.119946,-2.0093 2.35763,0 4.187442,0.8989 5.489411,2.6967 0.738973,1.05752 1.108443,2.25606 1.108443,3.59559 0,1.44529 -0.68618,3.11971 -2.05853,5.02326 l -1.214009,1.69205 c -1.301972,1.97405 -1.970553,4.61788 -2.005746,7.93145 M 67.428039,364.78107 c 0,-1.48053 0.738961,-2.4323 2.216882,-2.85532 0.422263,-0.14101 0.862119,-0.21152 1.319568,-0.21152 1.477922,0 2.885467,0.66978 4.222632,2.00932 1.513107,1.55104 2.30485,3.66609 2.375227,6.34517 0.0352,0.77553 -0.77415,1.21617 -2.428009,1.3219 -0.246322,0 -0.510236,0 -0.791743,0 -0.703772,0 -1.425139,-0.0529 -2.1641,-0.15861 -1.161224,-0.56402 -2.322444,-1.67442 -3.483667,-3.33123 -0.844527,-1.23378 -1.26679,-2.27368 -1.26679,-3.11971"
       inkscape:connector-curvature="0" />
    <path
       inkscape:connector-curvature="0"
       d="m 307.39795,412.69824 c 0,0.30767 -0.21599,0.4615 -0.64798,0.4615 -0.48382,0 -0.72573,-0.15383 -0.72573,-0.4615 0,-1.41868 -0.47519,-2.57243 -1.42554,-3.46125 -0.84669,-0.75208 -1.66745,-1.12811 -2.4623,-1.12811 -1.17499,0 -1.90937,0.46151 -2.20311,1.3845 l -0.10368,0.69225 0,0.0513 c 0,0.68371 0.50975,1.63235 1.52922,2.84593 0.27646,0.30767 0.50975,0.54695 0.69981,0.71788 0.27647,0.22221 0.73438,0.3333 1.37371,0.3333 0.67389,0 1.76249,-0.12818 3.26579,-0.38457 1.52057,0.25639 2.61781,0.38457 3.2917,0.38457 0.65661,0 1.11452,-0.11109 1.37371,-0.3333 0.72573,-0.63243 1.33049,-1.40159 1.81431,-2.3075 0.27648,-0.51277 0.41472,-0.93154 0.41472,-1.25631 0,-1.07681 -0.49247,-1.75199 -1.47739,-2.02547 -0.25919,-0.0683 -0.53565,-0.10255 -0.8294,-0.10255 -0.79485,0 -1.60697,0.38457 -2.43639,1.15373 -0.96763,0.85465 -1.45145,1.99986 -1.45145,3.43563 m 5.62441,-2.46134 c 0,0.68371 -0.47519,1.48707 -1.42555,2.41007 l -0.67388,0.56405 -0.25919,0.15383 c -0.32832,0.0512 -0.6739,0.0769 -1.03677,0.0769 -1.07131,0 -1.60698,-0.21364 -1.60698,-0.64097 0.0345,-1.31612 0.432,-2.34168 1.19229,-3.07666 0.6566,-0.64952 1.3305,-0.97426 2.02167,-0.97426 0.88124,0 1.44282,0.3162 1.68472,0.94863 l 0.10369,0.5384 m -2.4623,6.51228 c 0,-0.44439 -1.27004,-0.66661 -3.81009,-0.66661 -0.69116,0 -1.30459,0.0257 -1.84024,0.0769 l -0.62207,0.0513 c -0.93306,0.11964 -1.39962,0.29058 -1.39962,0.51276 0,0.2564 0.23327,0.3846 0.69982,0.3846 l 3.13619,-0.2564 3.11028,0.2564 c 0.48381,0 0.72573,-0.11965 0.72573,-0.35895 m 1.45146,0.61531 c -0.0345,1.1623 -1.79704,1.74345 -5.28747,1.74345 -3.45585,0 -5.2097,-0.58115 -5.26155,-1.74345 -0.0173,-1.09391 -0.18142,-2.06819 -0.49246,-2.92283 -0.19006,-0.46149 -0.55293,-1.05118 -1.08858,-1.76907 -0.67391,-0.90591 -1.01085,-1.70927 -1.01085,-2.41007 0,-1.09391 0.47518,-1.94001 1.42554,-2.53825 0.53567,-0.34184 1.1318,-0.51277 1.78842,-0.51277 0.89851,0 1.75386,0.32477 2.56597,0.97428 0,-0.78626 0.0777,-1.32467 0.23327,-1.61525 0.12095,-0.32475 0.51838,-0.71788 1.19227,-1.17938 l 0,-0.58969 -1.06267,-0.64099 0,-0.923 0.95899,0 0.31103,-0.94864 0.88125,0 0.33694,0.94864 0.93309,0 0,0.923 -1.03676,0.64099 0,0.58969 c 0.65661,0.47858 1.06267,0.88881 1.21818,1.23066 l 0.18144,0.74354 c 0.0173,0.2051 0.0345,0.47858 0.0518,0.82043 0.81214,-0.64951 1.65018,-0.97428 2.51415,-0.97428 1.15771,0 2.05624,0.43586 2.69557,1.30759 0.36287,0.51278 0.5443,1.09392 0.5443,1.74343 0,0.7008 -0.33695,1.5127 -1.01084,2.4357 l -0.59613,0.82044 c -0.63934,0.95718 -0.96764,2.23915 -0.98492,3.84583 m -11.58578,-7.1276 c 0,-0.71789 0.36288,-1.17938 1.08861,-1.38451 0.20734,-0.0683 0.42332,-0.10253 0.64796,-0.10253 0.72574,0 1.41691,0.32474 2.07352,0.97428 0.743,0.75206 1.1318,1.77761 1.16635,3.07665 0.0173,0.37602 -0.38014,0.5897 -1.19227,0.64096 -0.12095,0 -0.25054,0 -0.38878,0 -0.34559,0 -0.69981,-0.0257 -1.06269,-0.0769 -0.5702,-0.27347 -1.14042,-0.81189 -1.71063,-1.61524 -0.41472,-0.59825 -0.62207,-1.10247 -0.62207,-1.5127"
       id="path4800"
       style="font-size:12px;font-style:normal;font-weight:normal;fill:#000000;fill-opacity:1;stroke:none;display:inline;font-family:Bitstream Vera Sans;stroke-width:0;stroke-miterlimit:4;stroke-dasharray:none" />
    <path
       sodipodi:type="star"
       style="opacity:0.5;fill:#ffffff;fill-opacity:1;stroke:#202020;stroke-width:0.6448819;stroke-miterlimit:4;stroke-opacity:1;stroke-dasharray:none"
       id="path5810"
       sodipodi:sides="5"
       sodipodi:cx="195"
       sodipodi:cy="102.16534"
       sodipodi:r1="5"
       sodipodi:r2="2.5"
       sodipodi:arg1="1.5707963"
       sodipodi:arg2="2.1991149"
       inkscape:flatsided="false"
       inkscape:rounded="0"
       inkscape:randomized="0"
       d="m 195,107.16534 -1.46946,-2.97746 -3.28582,-0.47746 2.37764,-2.31763 -0.56129,-3.272538 2.93893,1.545085 2.93893,-1.545085 -0.56129,3.272538 2.37764,2.31763 -3.28582,0.47746 z"
       transform="matrix(0.97199526,0,0,-0.95249392,134.1842,525.2644)"
       inkscape:transform-center-y="-0.45479942" />
    <path
       inkscape:transform-center-y="-0.45479942"
       transform="matrix(0.97199526,0,0,-0.95249392,117.16784,525.2644)"
       d="m 195,107.16534 -1.46946,-2.97746 -3.28582,-0.47746 2.37764,-2.31763 -0.56129,-3.272538 2.93893,1.545085 2.93893,-1.545085 -0.56129,3.272538 2.37764,2.31763 -3.28582,0.47746 z"
       inkscape:randomized="0"
       inkscape:rounded="0"
       inkscape:flatsided="false"
       sodipodi:arg2="2.1991149"
       sodipodi:arg1="1.5707963"
       sodipodi:r2="2.5"
       sodipodi:r1="5"
       sodipodi:cy="102.16534"
       sodipodi:cx="195"
       sodipodi:sides="5"
       id="path5812"
       style="opacity:0.5;fill:#ffffff;fill-opacity:1;stroke:#202020;stroke-width:0.6448819;stroke-miterlimit:4;stroke-opacity:1;stroke-dasharray:none"
       sodipodi:type="star" />
    <path
       sodipodi:type="star"
       style="opacity:0.5;fill:#ffffff;fill-opacity:1;stroke:#202020;stroke-width:0.6448819;stroke-miterlimit:4;stroke-opacity:1;stroke-dasharray:none"
       id="path5814"
       sodipodi:sides="5"
       sodipodi:cx="195"
       sodipodi:cy="102.16534"
       sodipodi:r1="5"
       sodipodi:r2="2.5"
       sodipodi:arg1="1.5707963"
       sodipodi:arg2="2.1991149"
       inkscape:flatsided="false"
       inkscape:rounded="0"
       inkscape:randomized="0"
       d="m 195,107.16534 -1.46946,-2.97746 -3.28582,-0.47746 2.37764,-2.31763 -0.56129,-3.272538 2.93893,1.545085 2.93893,-1.545085 -0.56129,3.272538 2.37764,2.31763 -3.28582,0.47746 z"
       transform="matrix(0.97199526,0,0,-0.95249392,100.66712,525.2644)"
       inkscape:transform-center-y="-0.45479942" />
    <path
       inkscape:transform-center-y="-0.45480671"
       transform="matrix(0.97199526,0,0,-0.95249392,99.635825,509.09476)"
       d="m 195,107.16534 -1.46946,-2.97746 -3.28582,-0.47746 2.37764,-2.31763 -0.56129,-3.272538 2.93893,1.545085 2.93893,-1.545085 -0.56129,3.272538 2.37764,2.31763 -3.28582,0.47746 z"
       inkscape:randomized="0"
       inkscape:rounded="0"
       inkscape:flatsided="false"
       sodipodi:arg2="2.1991149"
       sodipodi:arg1="1.5707963"
       sodipodi:r2="2.5"
       sodipodi:r1="5"
       sodipodi:cy="102.16534"
       sodipodi:cx="195"
       sodipodi:sides="5"
       id="path5816"
       style="opacity:0.5;fill:#ffffff;fill-opacity:1;stroke:#202020;stroke-width:0.6448819;stroke-miterlimit:4;stroke-opacity:1;stroke-dasharray:none"
       sodipodi:type="star" />
    <path
       sodipodi:type="star"
       style="opacity:0.5;fill:#ffffff;fill-opacity:1;stroke:#202020;stroke-width:0.6448819;stroke-miterlimit:4;stroke-opacity:1;stroke-dasharray:none"
       id="path5818"
       sodipodi:sides="5"
       sodipodi:cx="195"
       sodipodi:cy="102.16534"
       sodipodi:r1="5"
       sodipodi:r2="2.5"
       sodipodi:arg1="1.5707963"
       sodipodi:arg2="2.1991149"
       inkscape:flatsided="false"
       inkscape:rounded="0"
       inkscape:randomized="0"
       d="m 195,107.16534 -1.46946,-2.97746 -3.28582,-0.47746 2.37764,-2.31763 -0.56129,-3.272538 2.93893,1.545085 2.93893,-1.545085 -0.56129,3.272538 2.37764,2.31763 -3.28582,0.47746 z"
       transform="matrix(0.97199526,0,0,-0.95249392,100.4093,492.41984)"
       inkscape:transform-center-y="-0.45479594" />
    <path
       inkscape:transform-center-y="-0.45479594"
       transform="matrix(0.97199526,0,0,-0.95249392,116.91002,492.41984)"
       d="m 195,107.16534 -1.46946,-2.97746 -3.28582,-0.47746 2.37764,-2.31763 -0.56129,-3.272538 2.93893,1.545085 2.93893,-1.545085 -0.56129,3.272538 2.37764,2.31763 -3.28582,0.47746 z"
       inkscape:randomized="0"
       inkscape:rounded="0"
       inkscape:flatsided="false"
       sodipodi:arg2="2.1991149"
       sodipodi:arg1="1.5707963"
       sodipodi:r2="2.5"
       sodipodi:r1="5"
       sodipodi:cy="102.16534"
       sodipodi:cx="195"
       sodipodi:sides="5"
       id="path5820"
       style="opacity:0.5;fill:#ffffff;fill-opacity:1;stroke:#202020;stroke-width:0.6448819;stroke-miterlimit:4;stroke-opacity:1;stroke-dasharray:none"
       sodipodi:type="star" />
    <path
       sodipodi:type="star"
       style="opacity:0.5;fill:#ffffff;fill-opacity:1;stroke:#202020;stroke-width:0.6448819;stroke-miterlimit:4;stroke-opacity:1;stroke-dasharray:none"
       id="path5822"
       sodipodi:sides="5"
       sodipodi:cx="195"
       sodipodi:cy="102.16534"
       sodipodi:r1="5"
       sodipodi:r2="2.5"
       sodipodi:arg1="1.5707963"
       sodipodi:arg2="2.1991149"
       inkscape:flatsided="false"
       inkscape:rounded="0"
       inkscape:randomized="0"
       d="m 195,107.16534 -1.46946,-2.97746 -3.28582,-0.47746 2.37764,-2.31763 -0.56129,-3.272538 2.93893,1.545085 2.93893,-1.545085 -0.56129,3.272538 2.37764,2.31763 -3.28582,0.47746 z"
       transform="matrix(0.97199526,0,0,-0.95249392,133.66856,492.16714)"
       inkscape:transform-center-y="-0.45479929" />
    <path
       inkscape:transform-center-y="-0.45479866"
       transform="matrix(0.97199526,0,0,-0.95249392,134.1842,508.58947)"
       d="m 195,107.16534 -1.46946,-2.97746 -3.28582,-0.47746 2.37764,-2.31763 -0.56129,-3.272538 2.93893,1.545085 2.93893,-1.545085 -0.56129,3.272538 2.37764,2.31763 -3.28582,0.47746 z"
       inkscape:randomized="0"
       inkscape:rounded="0"
       inkscape:flatsided="false"
       sodipodi:arg2="2.1991149"
       sodipodi:arg1="1.5707963"
       sodipodi:r2="2.5"
       sodipodi:r1="5"
       sodipodi:cy="102.16534"
       sodipodi:cx="195"
       sodipodi:sides="5"
       id="path5824"
       style="opacity:0.5;fill:#ffffff;fill-opacity:1;stroke:#202020;stroke-width:0.6448819;stroke-miterlimit:4;stroke-opacity:1;stroke-dasharray:none"
       sodipodi:type="star" />
    <g
       id="g5844"
       transform="matrix(0.97199526,0,0,0.95249392,60.282584,-444.33559)">
      <path
         transform="translate(0,875.19684)"
         inkscape:connector-curvature="0"
         id="path5840"
         d="m -25,132.16534 0,-10"
         style="fill:none;stroke:#cdcdcd;stroke-width:1px;stroke-linecap:butt;stroke-linejoin:miter;stroke-opacity:1" />
      <path
         transform="translate(0,875.19684)"
         inkscape:connector-curvature="0"
         id="path5842"
         d="m -30,127.16534 10,0"
         style="fill:none;stroke:#cdcdcd;stroke-width:1px;stroke-linecap:butt;stroke-linejoin:miter;stroke-opacity:1" />
    </g>
    <g
       transform="matrix(0.97199526,0,0,0.95249392,60.282584,-611.02203)"
       id="g5848">
      <path
         style="fill:none;stroke:#cdcdcd;stroke-width:1px;stroke-linecap:butt;stroke-linejoin:miter;stroke-opacity:1"
         d="m -25,132.16534 0,-10"
         id="path5850"
         inkscape:connector-curvature="0"
         transform="translate(0,875.19684)" />
      <path
         style="fill:none;stroke:#cdcdcd;stroke-width:1px;stroke-linecap:butt;stroke-linejoin:miter;stroke-opacity:1"
         d="m -30,127.16534 10,0"
         id="path5852"
         inkscape:connector-curvature="0"
         transform="translate(0,875.19684)" />
    </g>
    <g
       transform="matrix(0.97199526,0,0,0.95249392,439.36073,-444.33558)"
       id="g5854">
      <path
         style="fill:none;stroke:#cdcdcd;stroke-width:1px;stroke-linecap:butt;stroke-linejoin:miter;stroke-opacity:1"
         d="m -25,132.16534 0,-10"
         id="path5856"
         inkscape:connector-curvature="0"
         transform="translate(0,875.19684)" />
      <path
         style="fill:none;stroke:#cdcdcd;stroke-width:1px;stroke-linecap:butt;stroke-linejoin:miter;stroke-opacity:1"
         d="m -30,127.16534 10,0"
         id="path5858"
         inkscape:connector-curvature="0"
         transform="translate(0,875.19684)" />
    </g>
    <g
       id="g5860"
       transform="matrix(0.97199526,0,0,0.95249392,439.36073,-611.02203)">
      <path
         transform="translate(0,875.19684)"
         inkscape:connector-curvature="0"
         id="path5862"
         d="m -25,132.16534 0,-10"
         style="fill:none;stroke:#cdcdcd;stroke-width:1px;stroke-linecap:butt;stroke-linejoin:miter;stroke-opacity:1" />
      <path
         transform="translate(0,875.19684)"
         inkscape:connector-curvature="0"
         id="path5864"
         d="m -30,127.16534 10,0"
         style="fill:none;stroke:#cdcdcd;stroke-width:1px;stroke-linecap:butt;stroke-linejoin:miter;stroke-opacity:1" />
    </g>
  </g>
</svg>
